<mxfile host="app.diagrams.net" agent="Mozilla/5.0 (Windows NT 10.0; Win64; x64) AppleWebKit/537.36 (KHTML, like Gecko) Chrome/133.0.0.0 Safari/537.36" version="26.0.16">
  <diagram name="Страница — 1" id="Lzq8d5GTRrk68phpDPYD">
    <mxGraphModel dx="1909" dy="949" grid="1" gridSize="10" guides="1" tooltips="1" connect="1" arrows="1" fold="1" page="1" pageScale="1" pageWidth="827" pageHeight="1169" math="0" shadow="0">
      <root>
        <mxCell id="0" />
        <mxCell id="1" parent="0" />
        <mxCell id="mqnAiRJTUCGGiW-fdODI-4" value="" style="shape=image;verticalLabelPosition=bottom;labelBackgroundColor=default;verticalAlign=top;aspect=fixed;imageAspect=0;image=data:image/png,iVBORw0KGgoAAAANSUhEUgAAAmIAAAL5CAIAAACcld8xAAAgAElEQVR4Aey9eVgUV77/79z7zMxzf89d/pnvzL25SYx2EjPZJutMEhOVfVFExQVRY0xE2ReDGwiCAiIgO4oKioqgAqLiAi6AqKAICC6gIC6AvUHT7L1X/xzL6cuAC0t3dS3v+ifVVed8ltfnxDd1qurUOC02EGAsAYlEkpOTs2TJkg8//PA///M//z9sIyTwH//xH5MmTXJycsrKympra2PsQEDgIGBAAuMMaBumQcBgBFQq1ZUrV2xsbKZNm7Zz586qqiqhUCjBNkICIpHoxo0bqamp5s+2oqIipVJpsKLBMAgwkgBkkpFl43jQarU6NTXV1NR0x44d7e3tCoWC40DGmL5SqZRIJKmpqWZmZomJiSqVaowG0R0E2EQAMsmmanIiF4Igjh49am5unpeXh3/Q9VhytVp96tQpS0vLjIwMjUajR8swBQKMJgCZZHT5uBj81atX58+fn5qaShAEF/M3ZM4EQRw4cGDevHkXL140pB/YBgEmEYBMMqlaiFWj0fj7+8+bNw/XkQYaDGq1eunSpT4+Pmq12kAuYBYEmEUAMsmsenE92tra2l9++eXgwYNcB2HI/HNzc5ctW1ZRUWFIJ7ANAowhAJlkTKkQqFarPXLkiKOjY3NzM2gYjgCfz1+yZMnevXsN5wKWQYBBBCCTDCoWQtUmJSXNmjULdyUNPRQWLlwYHh5uaC+wDwKMIACZZESZEORzAtHR0TNnzgQOQxNwdHQMCgoytBfYBwFGEIBMMqJMCPI5AcgkNUMBMkkNZ3hhBAHIJCPKhCCfE4BMUjMUIJPUcIYXRhCATDKiTAjyOQHIJDVDATJJDWd4YQQByCQjyoQgnxOATFIzFCCT1HCGF0YQgEwyokwI8jkByCQ1QwEySQ1neGEEAcgkI8qEIJ8TgExSMxQgk9RwhhdGEIBMMqJMCPI5AcgkNUMBMkkNZ3hhBAHIJCPKhCCfE4BMUjMUIJPUcIYXRhCATDKiTAjyOQHIJDVDATJJDWd4YQQByCQjyoQgnxOATFIzFCCT1HCGF0YQgEwyokwI8jkByCQ1QwEySQ1neGEEAcgkI8qEIJ8TgExSMxQgk9RwhhdGEIBMMqJMCPI5AcgkNUMBMkkNZ3hhBAHIJCPKhCCfE4BMUjMUIJPUcIYXRhCATDKiTAjyOQHqZZIgiO7ubpFIJPzHJhaL+/v72V0SyCS764vsRkQAMjkiXGhsZALUyySfz1++fPn48eN5/9jefffdLVu2yGQyI7MwpHvIpCHpwjbDCEAmGVYwjodLvUzevXs3Ojr6zJkz/H9s6enpsbGx3d3dWq1Wo9F0dHQIhcKenh6tVqtQKORyOVkj+bON3O/u7hYKhWKxWC6XazQaqVQqEona2trEYnFbW5tSqdRqtZ2dnUKhkDQ70JRcLu/p6dFoNFSWHjJJJW34ojkByCTNC4Tw/omAUWRyx44dtbW1ujgKCgqSk5N7enrUavXZs2dNTEwmTpz4888/i0Si3NzcvXv3kiKXnJy8a9cugiAaGxsXL17M4/Hef//9mJiY+/fvu7q6vvPOO2+88cbbb79tZmZWVlZWXV1ta2s7ceJER0fHhoYGrVZ74sSJ/fv3y2SylJSUzZs3S6VSXQAU7EAmKYAMF0whAJlkSqUQ598JGEUmk5OTKysrdQXIz89PSkpSqVTV1dUrV67cu3fvw4cPPTw81q9fv/PZRspkZGRkYmJid3f31q1bt23bJpFICgoKvL29i4uLOzo6SkpKfH19Dx06JBaL79y54+bmFh0d/eTJk1WrVnl7e3d3d+fl5e3du7esrCwxMbGyshJXkzr+2AEBiglAJikGDndjIkAfmVQoFHl5eQEBAXw+X6vVHj161M/Pz9/fPy0tjcwwLi4uISGBIIjOzk6BQCCVSsvKytavX3/+/HmtVnv//v3Q0NCLFy9qtdqSkhJ/f/+bN29qtdri4mIPD4+KioqCgoL4Z9vhw4fHhGxUnXE1OSps6MROApBJdtaVrVnRRCaTk5NlMtnu3btXrVrV3t6u1WqvXLmyZcuWTZs2RURE1NfXP3nyZNOmTUlJSRqNpqSkxNzcnMfjjR8/3sTEpLy8XKvV1tXVhYSEXLhwQavVZmdnr1mz5t69e+Tx4ODgy5cvnz9/furUqYGBgR0dHdRXEzJJPXN4pC0ByCRtS4PAXkCAJjKZlJQ06GoyNzfX19e3srIyJSXlww8/nDhx4rvvvpuenv7gwYO1a9fu3r27vb29uLh49erVRUVFOpkkryyLiooCAgIGXU2eOXMmKSlp//79GRkZXV1dL2BhyEOQSUPShW2GEYBMMqxgHA+Xepmsr69PSEi4fv26jvzx48fj4+N19yb37dv3+PFjDw+P1atXk0+3CoXChw8fBgUF7dixo6mpyc/Pb+fOnZ2dnWlpaXPmzCFl8s6dO0FBQWfPntVqtY2Nja6urtHR0QKB4Ndff/Xy8iLvTaampvL5/J07d+bk5KhUKl0AFOxAJimADBdMIQCZZEqlEOffCVAvk42NjampqTdu3NAVoKCgYPfu3b29vWq1urCwkHzS9aeffhIIBLo2BEGkpKTs2rVLrVZnZWV9/PHHX3755bZt26Kjo3Nzc7VabUNDw9atW0tKSsi3SsrLy21sbCZOnLhgwQJy9vXEiRPp6ekEQVy8eDEqKqqxsVFnnIIdyCQFkOGCKQQgk0ypFOL8OwHqZVKtVsvl8oEXc0qlUiaTEQRBKpxEIhEIBLr3Hck6EQQhe7ZptVqlUikWi4VCYX9/v+5lSrVa3d/fT74xqdVqCYKQSqV8Pl83v6p7BVOtVvf19Q0MgIKhAJmkADJcMIUAZJIplUKcfydAvUxykztkkpt1R9YvJACZfCEWHKQpAcgkNYWBTFLDGV4YQQAyyYgyIcjnBCCT1AwFyCQ1nOGFEQQgk4woE4J8TgAySc1QgExSwxleGEEAMsmIMiHI5wQgk9QMBcgkNZzhhREEIJOMKBOCfE4AMknNUIBMUsMZXhhBADLJiDIhyOcEIJPUDAXIJDWc4YURBCCTjCgTgnxOADJJzVCATFLDGV4YQQAyyYgyIcjnBCCT1AwFyCQ1nOGFEQQgk4woE4J8TgAySc1QgExSwxleGEEAMsmIMiHI5wQgk9QMBcgkNZzhhREEIJOMKBOCfE4AMknNUIBMUsMZXhhBADLJiDIhyOcEIJPUDAXIJDWc4YURBCCTjCgTgnxOADJJzVCATFLDGV4YQQAyyYgyIcjnBCCT1AwFyCQ1nOGFEQQgk4woE4J8TgAySc1QgExSwxleGEEAMsmIMiHI5wQgk9QMBcgkNZzhhREEIJOMKBOCfE4gKSlp1qxZwGFoAgsXLgwPDze0F9gHAUYQgEwyokwI8jmBI0eOODo6Njc3g4jhCPD5/CVLluzdu9dwLmAZBBhEADLJoGIhVG1NTc0vv/ySmZkJFoYjcPTo0WXLll27ds1wLmAZBBhEADLJoGIhVK1Go/H39583b55KpQIOQxBQq9U//fSTj4+PWq02hH3YBAHGEYBMMq5kXA+4vLx83rx5aWlpBEFwnYW+8ycIIiMjY+7cuSUlJfq2DXsgwFQCkEmmVo6zcWs0mtzcXHNz82PHjuGaUo/DQK1Wnz592tLS8sCBAxqNRo+WYQoEGE0AMsno8nE0eLVavXv3blNT05SUFIlEolQqOQpCT2krlcqOjo60tDQzM7OEhAT88aEnrjDDEgKQSZYUkmtpqFSqy5cvW1tbT506dfv27deuXWtpaRHScmtra2tvb6dlaMLW1tbr16/v3LnT1NTUzMzswoUL+JuDa/8rId/XEoBMvhYRGtCXgEAgyMnJcXNzmzJlyvvvv8+j5fbGG2/893//Ny1D47333nuTJ09euXLloUOH+Hw+fSuNyEDAeAQgk8ZjD8/6IEAQRHd3d1tbm0Ag4NNyc3V1nTdvHi1D4wsEgra2tu7ubtyM1MdghA12EoBMsrOuyIo+BEJCQlauXEmfeBAJCIDAiAhAJkeEC41BYMQEwsLCnJ2dR9wNHUAABOhBADJJjzogCvYSiIqKWrFihVwuZ2+KyAwE2EwAMsnm6iI3OhBISEhYsWJFV1cXHYJBDCAAAiMlAJkcKTG0B4GREUhJSVmxYoVIJBpZN7QGARCgBwHIJD3qgCjYS2Dv3r0rV67EV03YW2FkxnICkEmWFxjpGZ1AZmami4tLY2Oj0SNBACAAAqMgAJkcBTR0AYEREMjJyXFxcbl9+/YI+qApCIAAbQhAJmlTCgTCUgInTpxwdXWtqqpiaX5ICwRYTgAyyfICIz2jEygsLHR1dS0rKzN6JAgABEBgFAQgk6OAhi4gMAICxcXFrq6uxcXFI+iDpiAAArQhAJmkTSkQCEsJlJWVubu7FxQUsDQ/pAUCLCcAmWR5gZGe0QlUVVW5u7sfP37c6JEgABAAgVEQgEyOAhq6gMAICNy6dcvDw+PIkSMj6IOmIAACtCEAmaRNKRAISwncu3fPw8PjwIEDLM0PaYEAywlAJlleYKRndAKPHj3y8PBITU01eiQIAARAYBQEIJOjgIYuIDACAgKBwNPTMzk5eQR90BQEQIA2BCCTtCkFAmEpAYlE4uXlFRMTw9L8kBYIsJwAZJLlBUZ6RifQ29vr7e29ZcsWo0eCAEAABEZBADI5CmjoAgIjIKBUKr29vYODg0fQB01BAARoQwAySZtSIBD2EvD29l63bh1780NmIMBmApBJNlcXudGEgI+Pj6+vL02CQRggAAIjIgCZHBEuNAaB0RDw9fV1c3MbTU/0AQEQMDYByKSxKwD/HCDg6+v7yy+/cCBRpAgCLCQAmWRhUZES3QisW7cOMkm3oiAeEBgmAcjkMEGhGQiMnsDGjRudnZ1H3x89QQAEjEcAMmk89vDMGQJhYWGQSc5UG4myjQBkkm0VRT40JBAdHe3s7CyTyWgYG0ICARB4NQHI5Kv54CwI6IFAQkLCihUrurq69GALJkAABKglAJmklje8cZJASkrKihUrxGIxJ7NH0iDAbAKQSWbXD9EzgsDevXtXrlzZ0tLCiGgRJAiAwEACkMmBNLAPAgYhkJmZ6eLicv/+fYNYh1EQAAFDEoBMGpIubIPAMwI5OTkuLi63b98GDxAAAcYRgEwyrmQImHkE8vPzXVxcqqurmRc6IgYBzhOATHJ+CACA4QkUFha6ubmVl5cb3hU8gAAI6JkAZFLPQGEOBIYSKCkpcXNzKykpGXoKR0AABGhOADJJ8wIhPDYQKCsrc3d3LywsZEMyyAEEOEYAMsmxgiNdYxCoqqpyd3c/ceKEMZzDJwiAwJgIQCbHhA+dQWA4BG7duuXu7p6dnT2cxmgDAiBAKwKQSVqVA8Gwk0BDQ4OHh0dGRgY700NWIMBqApBJVpcXydGDwKNHjzw9PdPS0ugRDqIAARAYAQHI5AhgoSkIjI6AQCDw9PTcvn376LqjFwiAgBEJQCaNCB+uuUJAIpF4eXnFxsZyJWHkCQIsIgCZZFExkQpdCfT29np5eUVERNA1QMQFAiDwUgKQyZeiwQkQ0BcBpVLp5eUVEhKiL4OwAwIgQBkByCRlqOGI0wR8fHz8/f05jQDJgwAzCUAmmVk3RM00Aj4+Pr/++ivToka8IAACWsgkBgEIUEHA19fXw8ODCk/wAQIgoFcCkEm94oQxEHgJgVWrVjk7O7/kJA6DAAjQlwBkkr61QWRsIrBu3boVK1awKSPkAgIcIQCZ5EihkaaRCWzcuBEyaeQawD0IjIoAZHJU2NAJBEZIICwsbMWKFQRBjLAfmoMACBiZAGTSyAWAe44QiI6OXrFihUwm40i+SBMEWEMAMsmaUiIRWhNISEhYuXJlV1cXraNEcCAAAkMIQCaHIMEBEDAAgZ07d7q4uIjFYgPYhkkQAAEDEoBMGhAuTIOAjsDevXtdXFxaWlp0R7ADAiDACAKQSUaUCUEynkBmZqaLi0tjYyPjM0ECIMAxApBJjhUc6RqJQE5OjouLy507d4zkH25BAARGSQAyOUpw6AYCIyKQn5/v6upaXV09ol5oDAIgYHQCkEmjlwABcIJAYWGhm5tbeXk5J7JFkiDAIgKQSRYVE6nQmEBJSYmbm1tJSQmNY0RoIAACLyAAmXwBFBwCAb0TKCsrc3NzKygo0LtlGAQBEDAoAcikQfHCOAg8J1BVVeXm5nbixAkQAQEQYBYByCSz6oVomUrg9u3b7u7u2dnZTE0AcYMAVwlAJrlaeeRNLYGGhgYPD4+MjAxq3cIbCIDAWAlAJsdKEP1BYDgEHj165OHhkZaWNpzGaAMCIEAfApBJ+tQCkbCZgEAg8PDwSE5OZnOSyA0E2EgAMsnGqiIn+hGQSCQeHh6xsbH0Cw0RgQAIvIoAZPJVdHAOBPRFoLe319PTMyIiQl8GYQcEQIAaApBJajjDC9cJqFQqLy+vkJAQroNA/iDANAKQSaZVDPEyloCXl5e/vz9jw0fgIMBRApBJjhYeaVNPwMvLa9WqVdT7hUcQAIGxEIBMjoUe+oLACAh4eXl5eHiMoAOaggAI0IAAZJIGRUAI3CDg4+Pj7OzMjVyRJQiwhwBkkj21RCY0J7BmzZoVK1bQPEiEBwIgMIgAZHIQEPwEAUMRCAwMhEwaCi7sgoDBCEAmDYYWhkHgnwmEhoauXLmSIIh/PoxfIAACtCYAmaR1eRAcmwhERkauXLlSJpOxKSnkAgKsJwCZZH2JkSBdCMTHx69cubKrq4suASEOEACBYRCATA4DEpqAgD4I7Nixw8XFRSwW68MYbIAACFBEADJJEWi4AYE9e/a4uLg0NzcDBQiAAIMIQCYZVCyEymwCBw8edHV1bWxsZHYaiB4EOEYAMsmxgiNd4xHIzs52dXW9ffu28UKAZxAAgRETgEyOGBk6gMDoCJw4ccLV1bW6unp03dELBEDAKAQgk0bBDqdcJFBQUODm5lZeXs7F5JEzCDCWAGSSsaVD4EwjUFxc7ObmVlxczLTAES8IcJoAZJLT5UfyVBK4cuWKm5tbQUEBlU7hCwRAYIwEIJNjBIjuIDBcApWVle7u7sePHx9uB7QDARCgAQHIJA2KgBC4QeDWrVvu7u7Z2dncSBdZggBLCEAmWVJIpEFbAgqFoqurS6lUNjU1eXt7Z2VlaTSa6urq2tpa2saMwEAABHQEIJM6FNgBAYMQKCoqsrCwCAoKunz5sre3d1RUVHp6+ptvvunr64uvhRiEOIyCgF4JQCb1ihPGQGAIgXv37tnY2Pzrv/7rpGfb//t//+/f/u3f/vSnPx06dGhIWxwAARCgHQHIJO1KgoBYRkCj0ezdu/f3v//9uHHjfvvb3/7Lv/zLuHHjlixZ0tHRwbJMkQ4IsJIAZJKVZUVS9CIgEol+/PHHcf/Y/v3f/z01NZVeISIaEACBlxCATL4EDA6DgF4JHD169I9//CMplLNnz3706JFezcMYCICAoQhAJg1FFnZBYCCBvr4+FxeXcePG/eY3v4mNjR14CvsgAAJ0JgCZpHN1EBurCJSWlvJ4vGnTpjU0NLAqMSQDAqwmAJlkdXk5nJxKpZJIJEI6bU+ePFm7du3mzZsFAgGd4hp9LCKRqKOjQ6lUcnigIXX2E4BMsr/GHMyQIIjjx49/+umnPDpt77777tvPtnfffZdOcY0+lgkTJnz00Uf5+fkcHGNImTsEIJPcqTWHMm1ubvb29g4NDeXTbBM922gW1OjDOXPmzJw5c06cOMGhsYVUuUcAMsm9mnMg4/z8/IULF964cYMDuRozxR07dri7uz98+NCYQcA3CBiYAGTSwIBhnnICBEEEBwfb29trNBrKnXPIoUajcXBw2LBhA5bc41DVOZkqZJKTZWd10s3NzR4eHtu2bWN1lsZPrqamxsnJ6dixY8YPBRGAgCEJQCYNSRe2jUEgPz/fycmpqqrKGM455DMuLs7NzQ0zrhwqOVdThUxytfIszRszrtQUFjOu1HCGFzoQgEzSoQqIQW8EMOOqN5SvNFRTU7No0SLMuL4SEk6yhABkkiWFRBokAcy4UjMSMONKDWd4oQMByCQdqoAY9EMAM6764fg6K5hxfR0hnGcVAcgkq8rJ8WQw40rNAMCMKzWc4YUmBCCTNCkEwtADAcy46gHiMExgxnUYkNCEPQQgk+ypJcczwYwrNQMAM67UcIYX+hCATNKnFohkTAQw4zomfMPujBnXYaNCQ5YQgEyypJBI4+TJk1hVgIJhEB8fj1UFKOAMF/QhAJmkTy0QyegJEASxadOmWbNmYR3X0UMcRk+NRjNv3jys4zoMVGjCHgKQSfbUksuZNDc3e3p6Yh1XQ4+BmpqaxYsXY1UBQ3OGfVoRgEzSqhwIZpQETp48uXDhQqzjOkp8w+4WHx/v6uqKdVyHDQwN2UAAMsmGKnI8B3LGdebMmZhxNehIIGdc/f398eUsg3KGcboRgEzSrSKIZ8QEyGdco6KiRtwTHUZCgJxxzcvLG0kntAUBxhOATDK+hEiAnHGtrKwECoMSIGdcHzx4YFAvMA4CdCMAmaRbRRDPyAhgxnVkvEbbGjOuoyWHfownAJlkfAk5ngA54xodHc1xDoZOHzOuhiYM+7QlAJmkbWkQ2LAIYFWBYWEacyPMuI4ZIQwwlQBkkqmVQ9xarXaYM64ajaa7u1ssFgufbZ2dnUynRxCETCaTy+XUJIIZV2o4wws9CUAm6VkXRDUsAsN8xvXevXtz5859++23eTzexIkTZ86cefPmTUa/1dDf3x8TE7Nv375hYRpzI8y4jhkhDDCYAGSSwcVD6MOcca2qqlqxYsX+/fv5fH5LS0tYWNj69et7e3vVarVUKiUvMbu7u3U8Ozs7hUJhV1cXeYQgiN7eXvJiVCKRKJVK8rhcLheJRGKxmDyiUqnkcjn57qZSqZTJZARBKJVKuVxOSrJcLpfJZFqtVqlUtre3C4VCkUjU1dU19HXPrq4uoVAoFotfdr3Y19cXGhqanJwslUpFItELmykUCpFI1NbWpgtYl+BIdzDjOlJiaM8mApBJNlWTW7kMc8ZVq9VWVlb6+PgUFRWRgE6cOLF+/XqJRHLt2jVLS8uJz7alS5cKhUKCIGprax0cHHg83qxZs27duqXVavv6+tasWfPWW2/xeLzvvvvu5MmTWq22v78/ISFh0qRJH3300a5du5RKZXl5+a5du4RCoVarPX78eFRUlFQqPXv2bFpaWl9fn1arTU9Pj4+Pl8lkhw4d+uKLL3g83jvvvLNo0aKBi9poNJr6+npHR0cejzdp0qSoqChSWQeVtq+vLzo6+tdff3VycnrnnXdiY2MHNVMqlXv27Pnkk0/+8pe/ZGZmjkUpNRrN3LlzsarAoBLgJ3cIQCa5U2u2ZTrMGVetVltdXe3m5nbw4EGhUNjS0hIfH5+YmEgQREFBwZYtWx4/fiwWi6Ojo1NSUp6+FLhx48a9e/dKJJLg4GBXV9eOjo7Ozs6EhISMjAw+nx8XF5eVlUUQRFpamq+vb2tr66VLl1xcXE6dOnXlypX4+Pi2tjatVpubmxscHCyRSPLz87dv306q1K5duyIjI2tqakJDQ7OzsyUSyaVLl7Zt21ZTU6OrjVQqDQsLi4+Pl0gkp06d8vb2vnz5su6sbkehUKxbt87a2vrKlSsVFRW+vr7Hjh0bOI2cmZkZERHR1NR0+fLliIiI69ev6/qOdKe2tnbRokVYVWCk3NCeNQQgk6wpJecSOX369DC/nFVXV2dra/s///M/5L3J+fPnNzU1kTIZFRXV0tIiFot37dqVl5d3/vz5lStXnj9/XiqV5uXleXt737x5s6Oj48iRI7W1tVqtdv/+/dnZ2X19fWvXrl2zZo1EImltbfX3909OTr506VJUVFRtba1QKNy9e3dQUJBUKj19+nR0dPSDBw+EQmF0dHRUVNSDBw/S0tJOnz4tlUqvXLkSFxdHWibrRxCEVCoVCARSqfTy5cvr1q3TXQQPLLBMJgsMDAwKClKpVFqtNi4uLjo6WndB2dfXt2nTpp07d5Jd+vr6FArFwO4j2k9MTHR1dcWqAiOChsZsIgCZZFM1OZQLQRChoaH29vZDb+wNpUBeTR44cID/bDt27NiGDRvq6+vLy8unTJkyYcKEiRMnLlq0SCQSlZSUfPfdd++88w7v2WZpaXnjxo2HDx9mZma2traqVKq9e/dmZ2fL5XI3N7c//vGPPB7v3XffnTRpUkJCwtWrV21sbMaPH8/j8f70pz8tWbJEJpMVFRV9++23EyZM4PF4b7755qZNmzQajUQicXNzmzBhwltvveXg4HD//n1dzBqN5ty5c6ampjweb/z48WZmZhUVFbqzup2+vr6wsDCdECYkJERGRupksq2tzdfXNzk5Wdd+1DsajWb+/PmYcR01QHRkAQHIJAuKyMUUyC9nDXNVgUH3JpuamgIDA8+fP19aWhoZGfn48WOJRJKWlhYXF3f48OG1a9dWVVWRl4mPHz+Wy+UVFRVZWVnkBdmBAweOHj1KqlR0dHRbW5tYLH748GF7e/vFixfJOVU+n79r166BV5P379/n8/lRUVFhYWFarbasrCw6Ovru3bulpaUxMTEDrybv3bvn5+e3Z8+e9vb28+fPr169uqSkZGiByavJkJAQ8q2YgICAp88l6S4Zn94K3bhxY0pKCtmxt7f3hc/4DDU79Ehtbe3ixYsx4zqUDI5whwBkkju1ZlWmp0+fHv6Xs8gnXQ8cOEA+1Jqdne3n53fnzp2ioqKIiIjm5mapVLp9+/bw8PCampqQkJB9+/ZJpdK0tDQ/P7/q6urdu3cnJiYKBIJHjx7Fxsbu2bNHpVLt2bPHz8+vpaWlrq7Oz8/v4MGDpaWlCQkJr743GR4e/uTJk127duXm5mq12rt37yYlJVVXV+tqc+/ePV9f3z179nR1de3atcvBwaG0tFSpVPb29pLzq2RLuVy+atWqBQsW1NfXkw9i9Q0AACAASURBVPcmBynZ04d61q5d++jRo/Ly8oCAgLNnz/Y92wbev9Q5fcVOYmKii4sLZlxfgQinWE8AMsn6ErMwQXLG1c7Objgzrlqt9t69ew4ODuSjqjwez9TUtKioSKPRlJWVmZubT5w4kcfjmZmZlZaWajSampqa2bNnk81KSkpOnDjx0Ucfvfnmm+R9zTfeeGPq1KnXr1+Xy+Xx8fEffPABj8cLDg7u6+u7evXqzp07ySddjx07FhkZOfRJ1+Tk5Ozs7NjYWD6fr9Vq6+rqUlNTyedpyTqp1ep9+/Z99NFHX3/9dWxsbGRkZGFhYWVlZWJiYmNjo66W/f39iYmJAQEBTk5OH374YUZGxqBnWbu6usLCwng83ueff56RkSGTydLT0/fs2aO74tSZesUOOeO6bt26kYrrK2ziFAgwjgBkknElQ8BacsY1MjJymCzUajX5JuKzW5P89vZ2Ul9VKlVHR4dAIODz+RKJRK1Wk3OYUqmUz+d3dHQQBJGRkREeHi4Sifh8vkAguHPnTmRkZH5+vlarlcvlgmcbeVNQpVI9nQslLSsUiv7+/he+N9n/bCMjV6vVcrmc9KvLRaFQkO9o9vf3y+VyxbOtp6dn4NUkQRByuby/v18ikQiFwkEaSZrq7+8XCAQikYg82/tsG5HgkTOu5IWvLjzsgADXCEAmuVZxNuRLzrhS8+Ws7OzsvXv36qh1d3fv27evsLBQd4TFO+SMa1NTE4tzRGog8FoCkMnXIkIDehEY6YzrGKN/+obiwOdfyMu4F169jdER3bpjxpVuFUE8xiIAmTQWefgdJYGRzriO0g3nu2HGlfNDAACeE4BMYigwjACVM64MQ6PXcDHjqlecMMZgApBJBhePg6FTPOPKQcJkyphx5WzpkfhQApDJoUxwhL4EWlpaPD09h/+MK30zoXdkNTU1ixYtwjOu9K4SoqOIAGSSItBwoxcCZ86ccXJyouYZV70EzFAjmHFlaOEQtiEIQCYNQRU2DUKAIIjw8PDhrypgkCA4YBQzrhwoMlIcAQHI5AhgoalxCbS0tHh5eWHG1dBVIL+chRlXQ3OGfaYQgEwypVKIU3vmzJmFCxdixtXQQyEpKQlfzjI0ZNhnEAHIJIOKxelQyRnX6dOnD3MdV07DGkPyGo1mwYIFWMd1DAjRlW0EIJNsqyhb8yFnXLdu3crWBGmSF1YVoEkhEAZ9CEAm6VMLRPIqAphxfRUd/Z1LSkrCl7P0hxOW2EAAMsmGKrI+B8y4UlNicsZ1zZo1I/qQCDWxwQsIGIsAZNJY5OF3BAQw4zoCWGNoSs645uTkjMEGuoIA2whAJtlWUVbmgxlXaspKzrjiy1nU0IYXphCATDKlUtyNEzOu1NQeM67UcIYXxhGATDKuZJwLGDOu1JQcM67UcIYXxhGATDKuZJwLGDOu1JQcM67UcIYXxhGATDKuZNwKGDOu1NQbM67UcIYXJhKATDKxahyKubW11cvLC6sKGLrkN2/eXLx4MZ5xNTRn2GciAcgkE6vGoZgLCgqwjisF9U5OTnZxccEzrhSghgvGEYBMMq5kHAqYIIiIiAis42rokms0moULF2JVAUNzhn2GEoBMMrRwnAi7ubnZx8cnLi6OE9kaL8nbt29jxtV4+OGZ7gQgk3SvEJfjKywsnD179qlTp4Rs2dra2trb2+mWTVRUlKurK2Zcufz/GnJ/BQHI5Cvg4JSRCRQUFHz66acTJkzgsWX7n2cb3bL5+OOPDx8+jHVcjTzc4Z6uBCCTdK0M4tJqlUqlRCIRCoV8tmzLli1zcnKiWzZtbW1KpRIjDgRA4IUEIJMvxIKDIGAQAr/++qunp6dBTMMoCICAYQhAJg3DFVZB4EUEvL29PTw8XnQGx0AABGhKADJJ08IgLFYS8Pb29vLyYmVqSAoE2EoAMsnWyiIvOhLw9vb28fGhY2SICQRA4CUEIJMvAYPDIGAAAt7e3qtWrTKAYZgEARAwFAHIpKHIwi4IDCXg7e3t5+c39DiOgAAI0JYAZJK2pUFgLCTg7e29Zs0aFiaGlECAvQQgk+ytLTKjHwEvL6/169fTLy5EBAIg8FICkMmXosEJENA7AS8vr4CAAL2bhUEQAAHDEYBMGo4tLIPAPxEgCMLLyyswMPCfjuIHCIAAvQlAJuldH0THIgJqtfrpS5MbN25kUU5IBQTYTwAyyf4aI0OaEFAqlV5eXiEhITSJB2GAAAgMhwBkcjiU0AYE9EBALpd7eXlt3rxZD7ZgAgRAgCoCkEmqSMMP5wn09/d7eXmFhYVxngQAgACTCEAmmVQtxMpoAr29vV5eXhEREYzOAsGDANcIQCa5VnHkazQC3d3dXl5ekZGRRosAjkEABEZOADI5cmboAQKjItDV1eXl5RUdHT2q3ugEAiBgHAKQSeNwh1cOEujo6PD09IyJieFg7kgZBJhLADLJ3NohcoYRaG9v9/T0jIuLY1jcCBcEuE0AMsnt+iN7CgmIxWJPT8+EhAQKfcIVCIDAWAlAJsdKEP1BYJgEhEKhp6dnUlLSMNujGQiAAB0IQCbpUAXEwAkCfD7f09Nz+/btnMgWSYIAWwhAJtlSSeRBewKtra0eHh4pKSm0jxQBggAI/B8ByOT/scAeCBiUQHNzs4eHx65duwzqBcZBAAT0SwAyqV+esAYCLyXw6NEjDw+P1NTUl7bACRAAAfoRgEzSryaIiKUEHj586OHhsWfPHpbmh7RAgJ0EIJPsrCuyoiGBpqYmDw+P9PR0GsaGkEAABF5GADL5MjI4DgJ6JtDQ0ODh4XHgwAE924U5EAABQxKATBqSLmyDwAACd+/e9fDwOHjw4IBj2AUBEKA7Acgk3SuE+FhDoK6uzsPDIysrizUZIREQ4AIByCQXqowcaUHg9u3b7u7uhw8fpkU0CAIEQGB4BCCTw+OEViAwZgI3b950d3fPzs4esyUYAAEQoI4AZJI61vDEcQI1NTXu7u65ubkc54D0QYBZBCCTzKoXomUwgerqand397y8PAbngNBBgHsEIJPcqzkyNhKByspKd3f348ePG8k/3IIACIyGAGRyNNTQBwRGQaCiosLd3T0/P38UfdEFBEDAWAQgk8YiD7+cI3D16lV3d/fTp09zLnMkDAJMJgCZZHL1EDujCJSVlbm7uxcUFDAqagQLAlwnAJnk+ghA/pQRuHz5spub29mzZynzCEcgAAJjJwCZHDtDWACBVxHg8/lNTU1KpfLKlSuenp7FxcVqtZrP54vF4ld1wzkQAAF6EIBM0qMOiIK9BLZv3/7222+HhoZmZmZ6eXkdOnQoKSnps88+i4+PZ2/SyAwE2EMAMsmeWiITehIoLy//8ssvf/vb37711luTJk2aMGHC7373u08++aS4uJieASMqEACBgQQgkwNpYB8E9E9Ao9EEBgaOGzfuN7/5ze9///txz7b169er1Wr9O4NFEAABfROATOqbKOyBwBACZWVlX375JSmQ48aN++abb65duzakFQ6AAAjQkQBkko5VQUwsI6DRaNatW/eb3/xm3Lhx//Iv/xISEqLRaFiWI9IBAbYSgEyytbLIi14ELl68+PHHH48bN+6HH36orq6mV3CIBgRA4OUEIJMvZ4MzIKA/Amq12tfX93e/+114eDhBEPozDEsgAAKGJQCZNCxfWAcBHYGDBw+am5uXlJTojmAHBECA/gQgk/SvESJkAwGFQrFt27avvvoqOzsbz7iyoaLIgTMEIJOcKTUSNR4BmUwWERExb948Hx+fOXPmHDx4UKVSGS8ceAYBEBgBAcjkCGChKQiMgkBnZ+fatWutrKxKS0v7+/vz8vKsrKx27typUChGYQ1dQAAEKCYAmaQYONxxi4BQKFyxYoWlpeXVq1fJzDUazZkzZ2xsbLZu3SqXy7mFA9mCAAMJQCYZWDSEzBACjx49mjdvnoWFxc2bNweGTBBEcXGxjY2Nv79/d3f3wFPYBwEQoBsByCTdKoJ4WELg3r17dnZ2M2bMaGxsfGFKV69etbW1dXV1xadCXsgHB0GAJgQgkzQpBMJgFYGampoZM2YsXry4paXlFYnV1tba2touXLiwubn5Fc1wCgRAwIgEIJNGhA/X7CRQXl4+ffp0T0/P9vb212bY0NBg+2xraGh4bWM0AAEQoJ4AZJJ65vDIWgIEQRQVFdna2m7YsKG3t3eYeT5+/NjR0dHW1ra2tnaYXdAMBECAMgKQScpQwxHLCWg0mlOnTtnY2MTExMhkshFlKxKJXF1dra2tdQ/Ejqg7GoMACBiOAGTScGxhmUME1Gr10aNHra2t09LSRvdCZFdXl7+/v7W1dVFRERZ95dDQQaq0JwCZpH2JECDtCSiVyv3791tZWWVlZY1leR2ZTBYZGWltbX369Gl8aYv2ZUeAXCEAmeRKpZGngQgoFIqEhARLS8u8vLyxL9aqUCh2795tbW2dm5s7dmsGShlmQYBTBCCTnCo3ktUzgd7e3pCQEEtLy8LCQn1d/6lUqszMTCsrq4MHDyqVSj1HDHMgAAIjJACZHCEwNAeBfxDo6Ojw8fGxsLAoLS3V791EtVqdl5dnbW2dlJQ0ujud/4gR/wUBEBgrAcjkWAmiPzcJPHnyZNmyZebm5pWVlYYgoNFoCgsLra2tQ0NDR/rcrCHigU0Q4CwByCRnS4/ER0/g4cOHs2fPNjU1raurG72V1/UkCKK0tNTa2nr16tVSqfR1zXEeBEDAIAQgkwbBCqMsJlBXVzdr1qzZs2ffv3+fgjSvX79ubW29fPlygUBAgTu4AAEQGEQAMjkICH6CwKsI3LhxY+bMmT///DOfz39VO72eu337trW19dy5cx8+fKhXwzAGAiDwegKQydczQgsQIAmUlZXZ2dn9+uuv1E+B3r9/f+bMmTNmzLh79y7KAQIgQCUByCSVtOGLqQTIxVqnT5++adOm/v5+o6TR2tq6dOnS6dOn37hxwygBwCkIcJMAZJKbdUfWIyCgW6w1ISFBLpePoKe+m7a3t3t7e9va2paVlenbNuyBAAi8mABk8sVccBQESAJqtTonJ8fa2nrPnj10eNm/r69v48aNNjY2Fy5c0O/Lmqg4CIDACwlAJl+IBQdB4O8ElEplWlqalZXVoUOHxrJYq35pyuXy2NhYa2vrkydP6mvpH/1GCGsgwCYCkEk2VRO56JOAXC7ftm2bhYXF8ePH6ba8qlKp3Lt3r7W1dU5ODt1i02cNYAsEaEAAMkmDIiAE+hHo6uoKDAw0Nzc/e/YsPa/YVCrV4cOHra2t09PT6TAbTL8aIiIQ0A8ByKR+OMIKmwiIxWJ3d3czM7PLly/T+f6fWq0+ceKElZVVXFyccZ8tYlP1kQsIDCIAmRwEBD+5TqC1tXXx4sUmJibV1dX0Z6HRaM6ePWtpaRkcHNzb20v/gBEhCDCOAGSScSVDwAYkcP/+fQcHBysrq/r6egO60atpgiAuX75saWnp7e3d3t6uV9swBgIgoIVMYhCAwHMCt2/fnjNnzoIFCx49esQ4KFVVVZaWlkuXLm1tbWVc8AgYBOhMADJJ5+ogNuoIVFZW2tvbu7i4iEQi6rzq1VNdXZ25ubm9vX1TU5NeDcMYCHCaAGSS0+VH8iSBS5cuzZw5c926dd3d3Yxm0tTU5ODgMHPmzDt37jA6EQQPAvQhAJmkTy0QiREIEARx/vz56dOnR0REsOPrxwKBYPny5XZ2dgb6XrQRigSXIGBUApBJo+KHc6MS0Gg0J0+etLa2TklJUSgURo1Fn86lUunq1atnzJhB8xda9JkzbIGAwQhAJg2GFobpTUClUh06dMjKyio9PZ0+C9Hpi1l/f39YWNj06dPPnTtH51c/9ZUv7ICA4QhAJg3HFpbpS0ChUKSkpFhaWh45coR9Gklyl8vlSUlJ1tbW+fn59FxIiL7jA5GBwAACkMkBMLDLDQL9/f0RERHm5uasXzpcqVTu27fPysoqOzubrX8NcGPMIktjEoBMGpM+fFNPQCqVrl271tTUtKioiAuzkWq1+siRI1ZWVrt378bSr9SPN3hkAQHIJAuKiBSGS0AoFK5YsWLq1Knl5eXD7cP8dhqNJj8/39LSMioqCku/Mr+eyIBqApBJqonDn7EINDc3L1iw4IcffqitrTVWDMbySxDEhQsXLCwsAgICurq6jBUG/IIAEwlAJplYNcQ8YgINDQ1z586dMWPGvXv3RtyZLR3KysrMzc3d3NzEYjFbckIeIGBwApBJgyOGA6MTuHnz5pw5c5YsWdLS0mL0YIwbwI0bN8zMzBYuXNjc3GzcSOAdBJhCADLJlEohzlESqKiomDVrlqenp0QiGaUJdnW7d++era3t7Nmz79+/z67MkA0IGIQAZNIgWGGUDgQIgrh48aKdnV1gYGBfXx8dQqJJDI8fP164cOGsWbNu3bpFk5AQBgjQlgBkkralQWBjIkAQxNmzZ21tbaOjo9mxWOuYcAzpLBaLXV1dZ86cef369SEncQAEQOD/CEAm/48F9lhDQK1W5+fnW1tb79y5k02Lteq3QN3d3evXr58xY8bFixe58AqpfunBGncIQCa5U2uuZKpSqfbv329pabl//34sPfPqqstksq1bt9ra2hYWFkIpX80KZzlLADLJ2dKzM3GFQpGQkGBubp6Tk6NWq9mZpF6zUigUu3btIpd+BTG9ooUxlhCATLKkkEhDq9X29vaGhISYmJicPn0ai30Pf0ioVKoDBw5YWVllZmbi+nv43NCSIwQgkxwpNPvTlEgkvr6+U6dOLSkpwfzhSOutVquzs7OtrKySk5NxN3ek9NCe3QQgk+yuL1ey4/P5P//88/fff19RUcGVnPWdp0ajOXXqlIWFRVhYWH9/v77Nwx4IMJUAZJKplUPcOgIPHz50cnIyNTXFW4A6JqPbIQiiuLjYzMxszZo1Uql0dEbQCwRYRgAyybKCci6d+vr6+fPnz5kzp7GxkXPJGybha9eumZiYODs7CwQCw3iAVRBgEgHIJJOqhVgHEaipqXFwcPjll1/4fP6gU/g5FgI3b96cOnXqvHnzHj9+PBY76AsCLCAAmWRBETmawrVr12bNmvXrr792dnZyFIEh025oaJg5c6aDg8Pdu3cN6Qe2QYDuBCCTdK8Q4htKQLdY6+bNm/GwyVA++jrS0tKydOnS2bNnc/ALnfpiCDssIACZZEERuZWCRqMhF2uNj4+Xy+XcSp7ybCUSiY+Pj729/bVr1yh3DocgQAsCkElalAFBDJOAWq3Ozc21trbevXu3UqkcZi80GwuB/v7+oKAgOzs7vJA6Fozoy1wCkEnm1o5zkSuVyj179lhYWBw8eBCLxVBZfplMFhMTY2trW1BQgOWNqCQPX3QgAJmkQxUQw+sJyOXymJgYU1PTvLw8LD36el76bqFQKFJTU62trY8dOwb++qYLe7QmAJmkdXkQHEmgq6srMDBw6tSpuJox4pBQqVQHDx60srLav38/ZryNWAi4ppgAZJJi4HA3YgJisdjDw+P777+/dOkSFmsdMT69dlCr1Xl5eRYWFvHx8Vj6Va9oYYy+BCCT9K0NItNqtU+ePFmyZMm3335bVVUFIHQgoNFoCgoKzMzMQkJCent76RASYgABgxKATBoUL4yPiUBTU9OiRYusra3r6urGZAid9UqAIIjS0tJp06b5+PhIJBK92oYxEKAdAcgk7UqCgEgCdXV1CxYscHR0fPToEZjQkMD169enTp36008/YaVAGlYHIemRAGRSjzBhSm8Eqqur586d6+LiIhKJ9GbUkIYIgpDJZIa7XSeTyYRCYVdX16AkXnZ8UDMD/bx9+7aFhcWCBQsePnxoIBcwCwJGJwCZNHoJEMBgAuXl5fb29uvWrWPQrS+JRBIfH3/48OHByejjd29vb1RU1IQJE5ycnJqamnTPMfX29kZGRk6YMGHJkiUPHjzQHdeHz+HaaGpqmvtsw8T4cJGhHdMIQCaZVjFWx0sQRElJiZ2d3ZYtW2QyGfW5ajSajo4OoVAokUheuIKBWq2Wy+VDXxxsa2uLiIhIS0vr6OgQi8WDLivVanVXV9erMyIIgnTd09MzKPFDhw6FhoY2NjbGxcVt27ZNZycrKyssLKyxsTEmJiY2NlZ3fFB3Q/8UCATLly+fM2fOjRs3DO0L9kGAegKQSeqZw+OLCWg0msLCQhsbm6SkJKMs1qpUKs+fP29pacnj8b755pujR48OvT57+PBhenr60CsniUQSExPj6ek5Z86cSZMmpaamDpTSx48fr1u3LikpSSQStbe3DzWr0WiuX79uZ2fH4/FWrlwpFosHMsrKytqyZYtAINixY0d0dLRODjMzMyMiIgQCQXJyckxMjO74wL7U7Hd1dfn5+dnb25eVlVHjEV5AgDICkEnKUMPRqwioVKpDhw5ZWlqmpqYa69X12traoKCgU6dOkTOoPj4+A++MKhSK9vb20tLSsLCwwsJCkUjU19enS6mnp+fHH3/84Ycf6urqzp075+3tXVRUpDurVqs7OzsPHjz45Zdfzpw58/Lly93d3QPFsq6uLjw8/OTJk3w+f+vWrQcOHND11Wq1AoHAzc3t888/9/f3v3fvnu6UQCBwdXX9/PPPAwICjP5V6v7+/tDQUDs7u+Li4oGp6aLFDggwlABkkqGFY1XYSqUyJSXFzMwsKyvrhVOd1GSrVqvb29tFIpFUKt2/f/+6deuePHmic3316lVbW9u33nrrD3/4w5tvvvnFF18MFLOOjo41a9Zs3rxZq9WqVKrIyMiEhARdX3Knp6entra2oqLi119/DQ0NHfjXQFZWVnBwMHkRKZfLBwqwWq2+du3a5MmTJ0yYkJ2drVKp5HK5UqnUHefxeLm5ubrjg5xS+VMulyclJdnY2GCxJCqxw5ehCUAmDU0Y9l9DoL+/PyIiYtq0acePHx84UfmabgY4rVAodu3a9fHHH/N4vP/93/91dHRsb2/X+VEoFG1tbRcvXgwNDS0oKBAKhQPFrL29PSIiYt++fVqtVqlUbtu2LSYmRteXvDeZmZlJXk1eunSpq6tr4CVXbGzs6tWrOzo6dF10O0VFRVu2bKmtrc3JyfHx8dm5c2dSUtLNmzfLysrI40eOHPH19SWPV1RU6DoaZUepVJJLv+bk5BjxLx6j5A6nbCUAmWRrZZmRl1QqXb9+/ffff3/+/PmBsmGU6E+fPu3l5VVaWtrW1paSkuLn5ycQCAZF8rJ7k+TVZFhYmFar7e7uXrNmTWRkpK4veW8yMTFRIBC0tbUNzfTgwYMbN25sa2vTarVyuby3t1fXZseOHeHh4eR3OXbs2DF+/PgNGzaoVKqdO3du2bKFPJ6UlEQeN+LtSV2yKpUqMzPT0tISHzvTMcEOowlAJhldPmYHLxaLXVxc/va3v125coUOmZw6dcrV1fXKlSvd3d3Ozs5WVlYD702SEZJPug69Turp6XF0dLSxsREKhefOnfPx8Tl//rwuKfLeZH9/v+7IoJ2ndytXrVp1+vRpoVC4adOmuLg43bOyFy5c2Lx589WrV8Vi8eHDh8ePH79o0aK+vr6SkpLQ0NBr166JxeLMzMy33357yZIlL7weHeSLgp9qtfr48eNmZmYDHziiwC9cgIAhCEAmDUEVNl9PoKWl5aeffpoyZUp1dfXrW1PSgrwKfOeddxwcHKKjoyMjI2/fvj1Mzx0dHcnJyatXr54zZ85XX3010glklUp1+vTpadOm8Xi8FStWCAQC3dXkwFO//PJLZWVlXFxcVlaWWq3WdXF2dq6qqoqLizt06NAwAzZ0M41Gc/bs2WnTpm3YsGHoqgiG9g77IKBHApBJPcKEqeESuH///qJFi2bOnHn37t3h9qGkXV9fn0AgaG9vl8vlCoVi6FXjy6LQaDQKhaK/v7+9vV0sFg+/o84g+QARn88f+t6kSqVqa2vj8/mdnZ3krCx5W3To8VdcsOocUbZDEMTly5enTJni7u4+9LqcsjDgCATGSAAyOUaA6D5iAnfu3HF0dPzxxx9bWlpG3BkdmEagurp68uTJixcvbm1tZVrsiBcE/k4AMolxQCkBcrFWLy8vfFmCUu5GdVZXV2djY+Po6Hj//n2jBgLnIDAaApDJ0VBDn9ERKCsrmzVr1oYNGwa+SjE6U+jFLAKPHz92cnKaP3/+nTt3mBU5ogUByCTGABUECIIoLi6eMWMGHn0ciHs43xUh71m2t7cPeqlUpVK1P9sGHR9on1b7YrHYzc3NwcEBX9imVV0QzGsJQCZfiwgNxkpArVafPHnSxsZm+/btuvccxmqUFf3b2tpiYmJycnJelo1arS4oKPj2228nT55cWFioU0TyMddvvvlm8uTJ586d0x1/mR2aHO/t7fX397e3t6fJK0A0wYIwaE4AMknzAjE+PJVKlZGRYWFhkZ6ePnB5NjonRj5BKhQKpVIp+f7+oGjJleFeeEqr1XZ1dQ39NuQLPxIiEonCwsLS09MlEolYLB7Kp66ubtOmTefOnSsoKNi0aVN9fT0ZyZ07d0JCQs6fP3/mzJnNmzcPXOh1UKh0+ymTybZu3TpjxowLFy7oXnqhW5CIBwQGEoBMDqSBfT0TUCgUSUlJJiYmhw8fHsU7EnqOZnjm5HL5oUOH/vrXv/J4PFNT09LS0qH/mldUVKSmpg5cyk5n+8GDB8uWLePxePPmzauvr9f1ffz48dq1awd9JKStrS0qKsrLy8ve3v6DDz5IT08fdF1YV1e3efPm8vLyS5cuhYSEDJLJq1evlpaWbtq0iUEyqdVqFQrF9u3bbWxszpw587I/NXQ8sQMCRicAmTR6CVgbQE9PT1hY2A8//HDy5EkG/WtYVFQUFBRUUVEhkUg2b94cEBAw8GVEmUwmFouPHj0aEhJy48aNtra2gd/8EovF27Zt2717N5/P37FjR0JCgq7v0I+E9PT0dHV1LVy4cOrUqffu3SsoKPDx8SktLR04IAiCAlXsLgAAIABJREFUiImJmTZt2rJly06dOqU7RRBEVFQUefzMmTO640zZUSqV6enplpaWDPr7iSlsEafeCXBLJgmC6O7uFr58G+laXyKR6OXGOH3m0aNHa9eu/e6770pKSnRXVHofvoYwqFAonj5sIhaLpVJpYmJiYGBgb2+vzlF+fv633377xhtv/OEPfxg/fryJicm5c+d0Zy9duhQYGFhTU0MugD5waVayzcCPhGzduvXp+umrV6/esmUL2T48PHzHjh06a1qtViKR/Pzzz//1X/8VEBDQ1dWlVCrJVVvb29uXLl1KHu/u7tYdH9iX5vsqlerIkSMWFhbbt28XiURisbitra29vV0ikXR0dEil0q6uru7u7p6ent7e3r6+vv7+fplMRi77QH4gRaPRMGto0bwiCO9lBLglky0tLaamphMnTuS9aJs4ceLUqVOFQiH5ryT5DXqlUtnW1iYUCslHDTUaTX9/P7nkyuXLl995550XWcIx3rvvvvv1118nJia+bOTR9nhPT8+6devIQfL2228Puprs7+8XiUS5ubnBwcFVVVVisXjgauN5eXmrVq164TsPQz8S0t3dLRKJwsPDn657Tk5FRkREDPz8lkAgiIqKOnLkSG1traenZ1RUVGxs7JEjR0QiUVRUVE5OTk1NjYeHx7ZnG32WqRt+ZZ+q3YYNGz755JPPPvvs008//dvf/jZ16lRLS8uZM2fOmzdvyZIly5cvd3d3X7Vqlb+/f0hIyNatW+Pi4nbs2LFnz57MzMzc3NxTp06dP3/+0qVLFRUVN2/evHfv3uPHj59+hnOQ7kql0s7OzpfprlKpVKlUarUaujv82nGqJbdksrKy8t13321tbeW/aHvy5MmuXbsmTJjw5ptvvv32299+++3FixcvXbpkZmb2wQcf/O1vfysqKmpsbNy0aVNNTc2BAwcWL15cVVX1Iks4xn/w4MGaNWsmT5588eJFZv3Jv2fPHhcXl7t374pEoujo6MDAwKFveb7s3uTFixcDAgJqa2vJq8Oenh7dbDN5b3LQR0IkEsmqVau2bt2q1Wo7OztXrVoVGxur+weotLR0w4YN5LqyV69e/fOf/zx16tSWlparV68GBgaSYlxeXj5p0iQTExOjf5ZZF/Ywd9RqdU5OjoWFRXJycmtra2Nj482bNysqKi5dunTu3LmTJ0/m5uY+XdJ9z549O3bsiIuLi4iICAkJWb9+/apVq9zd3ZcvX7548eJ58+bZ2dlZWVlNnTr1m2+++eyzz/785z+/9957f/7zn7/44oun/wubmJhYW1vb29vPnz//xx9/dHZ29vT09PPz27Bhw6ZNm7Zu3RofH5+SkpKenp6VlZWXl3fq1KkLFy5cvny5srLy1q1bjY2Nzc3NA3VXd7H7Qt3VXexCd4c5DBjRjFsyWVFR8cEHH7yiMGq1ur6+ftu2benp6SKRqLOz8+7du62trVVVVdHR0eTn/VatWrVv375t27bV1dW9whRO9fT0bN68+Ycffjh16pROLeiPJTU11dnZ+eGzzdnZ2cPDY6hMqlQqmUw2NKnGxkZ/f//U1FShUJiQkBAcHKxbbOiFHwnp7u5++h6hnZ2dWCwm702WlJToEPH5/K1bt+7bt08kEt24ccPExOSzzz6rrq6WSCQRERH79+8XiUTV1dVTpkz58ssvr1+/PjQenSm67ahUqn379llaWh46dOiFz3YRBKHRaFQqlVKpVCgUcrlcJpP19fX19vb29PR0d3d3dXV1dnZ2dHRIJJL29va2tjaxWCwSiQQCwZMnTx4+fFhfX19TU3P16tWLFy+ePXs2Pz8/Ozs7IyMjLS1t+/btMTExT+e6N27cuH79el9fXzc3t59//nnRokVz5861s7OzsLCYMmXKX//6188++2zSpEnvvffexx9//NVXX02ePNnU1NTGxmb27NmOjo4//fTTypUrvby8Vq9eHRgYGBoaGh0dnZiY+PSv7X379h06dOjYsWNnzpwpLi4uLy+vqqq6c+fO/fv3W1tbhUKhSCQaNMk8UHeHTjJDd404hrklk9evX//ggw8GPUw4iH5fX9+BAwcKCgrI4z09PRcuXDAxMXnvvffCw8Pv3bvn6Og4d+5c8ophUF/8HERAoVAkJiaamJgcOXLk1dgHdTTiz+bm5p9//nnixIlLliyJioqKjo4e/rLdGo2msrJy5syZPB5v7ty5t2/ffrV0tbe3JyYmrl692t7e/m9/+9upU6cGUWpsbFy0aBGPx7OwsDh37lxWVlZiYmJvb29TU9PChQvJ4+fPnz948GBSUtJI76wbC7JCodixY4e1tfXp06cH5Wu4kDQajVqtHqi7/f39g3RXKpUO0l2hUCgQCFpbW5uamu7cuXPjxo3y8vKSkpKCgoLjx48fOXLkwIEDu3fvTkpKio6ODg8PDwoKWrt2rbe3t4uLy7Jly5ycnObMmWNra2tubv79999//fXXn3zyyXvvvff++++Tuvv999+bmZlNnz59zpw5Cxcu/Omnn1xcXHx8fNauXRsUFBQeHh4dHZ2UlLR79+4DBw5kZ2efOHGisLCwpKSkvLz8xo0bdXV1Dx484PP5gyaZyZu7Ot194c1dUneZNdNjuOHxasuQycF8pFLp3r178/PzyQco1q9f7+fnd//+/Z07d4aHh9+6dcvPzy8pKSkgIODRo0eDO+P3EAJKpfLAgQMWFhb79u174XXDkB7GP9DT0yMQCDo6OsiLmFdL3aBwCYLo6Ojg/+NrHoPODvqp+65I27PthZrR2dnJ5/PJjzlrNJq+vj7ynzapVKo7rlar+/r6RhTnoEgo+ymTySIjI6dPn06HD3GPOmvyYneg7spkskG629nZOVB3yYtdUnebm5sbGxtv375dVVV15cqVoqKiM2fOHDt27NChQ/v27du1a1diYmJUVFRoaOiGDRtWr17t5eW1cuXKpUuXOjo6zpo1y9bW1tTUdPLkyV999RWpu5MmTfr000//+te//vDDD+bm5tOnT3dwcHBycvr5559dXV19fX3XrVu3cePG8PDwmJiY7du3p6WlHTx4MDs7Oz8//+zZs6WlpdeuXautra2vr3/48GFXVxfkc+DYgEwOpPH3falUmpaWdvz4ca1WKxQKN2zYsHfv3qampg0bNpDvAPj5+ZWVleXk5OzcufOF/64Ntsj532q1Oj8/38bGZseOHViFh8vDoa+vLyAgwN7e/vLly1zmMDT3gbqrm2TW6a5uklmnu7pJZlJ3ny6Z29DQcPPmzevXr1++fPnChQunT58+evRoVlZWenr6zp074+PjIyMjN23atGHDBj8/Pw8PD2dn5x9//HHBggX29vbW1tYmJibffffdF1988cEHH5iamuIaYGCNIJMDafx9v7Oz8+DBg+Skq0ajycjIeOedd7777ruYmJjNmzdXV1cHBQXV19c3NjZGR0c/efJkcH/8fhEBgiCKiopmzJixbdu2gS8avqgtjrGTwNN/2d3c3ObMmVNZWcnODOmUlU53B97cJXV34M1dUncH3dz95JNPLl68SKdsjBwLZHJwAQiCkMvlumXDFAoF+YoI+QSBSqXq6+sjnx3v7+/H1eRgfK/8feXKFXt7+8DAQN1L969sjpPsIfB0mnHRokXz5s0jH9xlT2JszOS7774rLCxkY2ajzAkyOUpw6DY6AlVVVXPnzvX29mbK8yajSxO9BhK4e/eura3tggULGPfWysAsuLNvYmIycMkn7iT+skwhky8jg+OGInD79u0FCxYsXbqUWZ+zJ1e6YcRjMoaq3Kjs3rhx4/vvv1+0aFFLS8uoDKAT1QQsLS1zc3Op9kpjf5BJGheHvaE1NjY6OTnZ29szaM3uU6dObd26ta2tjb1l0X9mTx/jnDJliqur6/BfqtF/ELA4QgKLFy/Oy8vDw646bJBJHQrsUEqgubl56dKlU6ZMuXHjBqWOR+ssNzc3KCioqalJKBR2dna+0Iy+PrA1yLhuxcTOzk6m/ONFEMS5c+emTZsWEBDwMlyD0sRPmhDo6enBE+kDawGZHEgD+5QSeLpmysqVK7/55pvy8nJKHY/K2YkTJ1avXu3v7//+++8/XfzshWswXb16NTU1VbfyzkA/Dx48WLp0KY/HW7BgwcAPbD18+HDNmjXk8t8SiWSoCspksqdvKH3++ec8Hs/W1vb69esDzdJzX61WnzhxwtzcPCoqSiaT0TNIRDV8AuRHIzirnZDJ4Q8VtNQ/AalUunbt2h9++IH+H+ktKCiwsrKKiYlpbW3dtGlTUFBQT0+Pjgj5ga2cnJxXfGArLS2Nz+cnJycnJibqnvVVqVSdnZ0HDhz44osvZs2aVVZW1t3drTOr1WpPnjwZEhJSU1MjkUjWr18fHh5O8zdqVCpVVlaWpaXlrl27OPsP68AKsmC/u7s7PDy8vLx86J9xLMjutSlAJl+LCA0MS6Cvr2/Lli3Tpk07ceIEnR+QOXHihIeHBzlFXFpaGhgYePPmTR2a48ePf/PNN7oPbJmamp4/f153dmB7pVL5sg9sXbt2bdWqVeHh4QOXK5LL5eT6n1KpNCIiYsuWLXS+PlMqlXv27LG2ts7Ozh6YhQ4FduhPgCCI/v5+snxqtVomk6lUKqFQOPCLcvTPQo8RQib1CBOmRkmAXOTz6ZdYXrYQ9ijt6rVbXl5ecHAwn8/XarVXrlzZuHFjdXW1zgP5ga3s7Ozg4ODq6upBH9g6evToqlWr6uvrde11O+QHtjIyMr788stZs2ZduXKlq6tLd5ZcFsrDw4P8sNf48eO3bNlC20s0hUKRnJxsY2Nz5swZOv/FMxAv9ocS6OrqWr9+PblS0t27d5OSkhoaGjZt2lRaWoqryaG42HZkOEufsy1nhuSjm6lLS0vTre1Aq9iPHz/u5eV169YtrVZ77NgxLy+voW/Kv+zeZElJSUBAANlXqVQO/MCW7t6kQCAgF24dlHVCQoK3tzf56FBISEhERAQ9J11lMllYWNiMGTOKioq4+Y/poMIx92dnZ6ebm9vhw4eFQuG5c+fCwsLq6+t9fX3Pnj3LzcriapK5g5ltkavV6oKCAmtr6+TkZBpeMOXn58+ePTsjI0MoFA69N0kW42XvVjY0NPj7+z/9kqVQKIyNjQ0ODtatrkDem3zFPGpsbKynp2dLS0tDQ4OTk9O6detoKJPd3d3kd06eXmezbVxyL5/u7m5nZ+e3336bx+O9+eabPj4+Dx8+XL16NaNXqx9LGSGTY6GHvnomQBBEcXHxjBkzIiIiXqEcevY6PHNnzpzZuHFjUFAQj8dbsmSJUCgcXr+/t9JoNNevX58xYwaPxyMXbBv+nGRjY+OCBQsmTpy4YsWKLVu2JCYmvvBJ2uEHo/eWQqHQ2dl59uzZA2eh9e4FBikj8PRDnl5eXocPH+bz+efOnYuIiLh79y5kkjL+RnaESVcjF2B47svKyuzt7Z9+woxWjwwoFAqZTNbb28vn8wfdPhxOWiP6wNYgg11dXQKBQCqVyp9tw5fYQXYM8fPBgwdPv6w5d+7cO3fuGMI+bFJPoLOz08PDo6ioSKvV3rp1a+vWrXV1dZh0pb4QxvEImTQO95F7raqqcnBwcHV1FYvFI++NHhQRuHPnjqWl5fz58x88eECRS7gxPIGurq5169YVFxdrtdqbN28mJiY2NDQEBQWVlJTg3qTh8RvbA2TS2BUYgf87d+7Mnz/f0dHx8ePHI+iGplQRqKysnDp16tKlS/E5OaqQU+SHIIi+vj7ySTryhRDyu9/0fLaOAii4N0kBZLgYJYGmpiYnJycbG5sXvkoxSqPoNmYCBEFcunTJxMTEy8urvb19zPZgAARoTQAySevyILjW1tbFixd/++23eDyEJoNBo9EUFhaamZkFBwcPXIeIJuEhjLETUKlUvb29tLoFPvakxmIBMjkWeuhLBQGxWOzu7v7999+T7ztT4RI+XkJArVYfO3bMwsIiLi6Ohu+lvCRqHB4ZgStXrvzyyy9NTU0j68be1pBJ9taWRZl1dnZu2LBh2rRphYWF+CPXWIVVqVSZmZlWVlbp6emcvU1lLPhU+r1y5crMmTNxp0PHHDKpQ4EdWhOQyWTbtm0zNTU9duyYWq2mdaxsDE6pVKalpVlbW+fl5YE/Gyv8fznV1NTY2dnhDR8dEcikDgV26E6A/JfawsIiMzMTy2pTWS25XB4bG2tra4vFWqnEbixf9fX1lpaW5NqKxoqBVn4hk7QqB4J5DQGVSpWTk2NtbZ2amop5v9fA0tPp/v7+4OBgOzu74uJibr42pyeQjDHz6NEjExOTmpoaxkRs4EAhkwYGDPP6JkA+aWlra5uQkICnSPRNd7C9jo4OX1/fmTNnXr16dfA5/GYpAYFAMHnyZDxbrisvZFKHAjuMIUAQRElJiZ2dXWhoKN2WfmUMxGEE2traunTp0lmzZuHCYhi02NNEKpV+/fXX169fZ09KY8sEMjk2fuhtPAJXr16dNWuWn5/fKFZYNV7UjPHc2Nhob28/Z84cPPHImJrpKVCZTPaXv/wF8wc6nJBJHQrsMI/AjRs3HBwcli9fLhAImBc9jSO+devWtGnT5s6d++jRIxqHidAMReDDDz8sKyszlHWm2YVMMq1iiPefCdTX18+bN8/BweH+/fv/fAa/RkmgoqLCxMRk+fLlfD5/lCbQjeEEPv/885KSEoYnobfwIZN6QwlDxiLw4MGDhQsXmpmZ3b5921gxsMMvedPX3Nx89erVug9HsyM1ZDEiAt99993Zs2dH1IXFjSGTLC4uh1J78uTJsmXLfvjhBzx3MOqqazSa06dPW1hYhIaG9vX1jdoOOrKAgImJyalTp1iQiF5SgEzqBSOMGJ9Ae3u7j4/P1KlTL168iNf7RloPtVqdk5NjZWWVlJSkUChG2h3tWUbA1tY2Ly+PZUmNOh3I5KjRoSPtCPT09AQHB5uYmGCxmBHVRqVSZWRkWFlZHTx4EIs2jAgdWxvPnj378OHDbM1upHlBJkdKDO1pTUAul8fHx5ubm+fm5mLp0eGUSqFQ7N6929ra+vjx4yA2HGJcaLNw4cKMjAyMB7LWkEkujHlu5ahUKvft22dpaZmRkYGlX19de7lcHhUVZWtrW1BQgE+vvJoVp84uW7Zsz549mFogiw6Z5NTg50qyarX6xIkTVlZWu3btwv/qL6t6T0+Pv7//jBkzSkpKcDf3ZZS4edzV1TUlJQVLXJHVh0xy8/8C9mdNEERhYaGtre22bduw9OvQere1tbm5udnZ2VVUVAw9iyMcJ+Dr65uQkIAHnslhAJnk+P8ObE5ft/RrUFBQf38/m1MdYW7Nzc1OTk5P16K7efPmCLuiOScIrF+/ftu2bd3d3ZzI9nVJQiZfRwjnGU7g2rVr9vb2Xl5eEomE4anoJ/yGhobp06fPmjWrsbFRPxZhhXUEgoODw8PDOzs7WZfZaBKCTI6GGvowi0Btbe3s2bN//PHH1tZWZkWu92hramrMzc0dHR2bm5v1bhwGWUMgIiIiJCQEf1mSBYVMsmZgI5FXEbh3756Dg4OdnV1DQ8Or2rH6XHl5ubm5uaurq0gkYnWiSG6sBOLi4gICAtra2sZqiBX9IZOsKCOSGAaBx48fL1iwYMqUKRy8IUcQRFFRkaWlpb+/P2bShjFYuN4kJSVlzZo1QqGQ6yCe5Q+ZxDDgEAGBQODs7Dxt2jROfUtPo9GcPHnS0tIyMjISj/hzaLiPIdX09HQfHx98IoZECJkcw1BCVwYS6OjoWLt2rampaXFxMRdeFlSr1dnZ2eQrpFislYED1jghZ2Vlubm5tbS0GMc9zbxCJmlWEIRjeAL9/f1btmwxNzc/deoUu5eeUSqV+/fvt7KyOnz4MBYkMvzIYo+HY8eOOTs7P378mD0pjSETyOQY4KErYwkoFIodO3ZYWlpmZ2ezdeFKhUKRnJxMLtbK7r8GGDsM6Rv4mTNnfvzxxwcPHtA3RAojg0xSCBuu6ERApVJlZWVZWVnt27ePfVdaMpksPDzc1tb27Nmz0Eg6jTtmxFJSUrJw4cL79+8zI1wDRwmZNDBgmKcxAbVanZ+fb21tnZKSwqb7dp2dnWvWrJk+ffqlS5e4cP+VxkOMqaGVl5c7ODjcu3ePqQnoNW7IpF5xwhjTCBAEce7cuenTp0dERLDjKVDyad4ZM2Zcv36dadVAvHQhcOPGDTs7u/r6eroEZNQ4IJNGxQ/nNCBAEERpaemMGTPWr1/f8/+3d95hUWTp/mee5+fd3Xvv7jP33p25s+6s42CacPeZx9lnd2dHJ+kiMAaSAcecSeYxi0TJQYIgiEQFREWUpIKIEgwoKCA5x+6GbjId6O76OdZuL6MI3U13dXXXt/+xqDrnvO/7eY/97apT55yBARp4pLwLDQ0Ny5cvX7p0aXl5ufKtoCbjCVRWVhoaGqIXkR0BMsn4/xAA8JJAUVGRiYmJlZWV9q5QU1lZaWBgsGzZMgwpoVNPkkBjY+OCBQsYuBDHmNwgk2NiwUkmEigrKzM1NbW0tNTG9+CLi4sXLVq0fv16zHVjYt9VdcydnZ3z588vKSlRdcNa2R5kUivTBqfVRKC2ttbc3NzIyKiqqkpNJlTerFQqLSgoMDQ03LVrV3d3t8rbR4MMJNDT0/OXv/zlyZMnDIz99ZAhk68zwRlGE2htbV2zZs2CBQu04qc0+QqSoaGhg4ODtg+sMrrb0Sz44eHhuXPnYstuMi2QSZp1T7hDAwJsNtvGxmbhwoUFBQU0cOeNLkgkktTUVENDQ39/f4FA8MZyuAACihP49NNPGbX08TiEIJPjwMEl5hLo6+s7duzY3//+9+zsbHpOPRSLxUlJSUZGRlFRUSKRiLmpQuTqIfD555/fu3dPPW1rWauQSS1LGNyljIBAIPDx8TEwMEhNTaXbQjYikSg6OtrQ0DApKUn3lhCiLMUwNA6BefPm3b59e5wCzLkEmWROrhGpwgSEQmFERAS5dDh9ln4VCASnTp0yMjKioX4rjBgV6EpgwYIFGRkZdPWOUr8gk5TihjGtIzAyMnLp0iX6PNscHh52dHQ0Njam7dNgrUsxHB6TgLGxcUpKypiXmHYSMsm0jCNehQmQ2xobGxsHBQVp9k0ZLpe7d+/e77//Pj8/n54jpgrDRQW6EjA3N09KSkI3IwgCMknXTgq/6ERAKpXevn178eLFLi4umlr6tb29fePGjcbGxpjNRqeuobO+rF69+sKFC/QZa9AgaMikBuHDtJYRKCgoWLp06Y8//tjb20ux6/X19SYmJt9//31FRQXFpmGOmQQ2b94cGRmpSzvnKJ1HyKTS6FCRiQSKi4uXLVu2ZcuWzs5OyuJ//vy5kZGRubk5tsmljDkMWVtbh4WFaerZCa34QyZplQ44owUEnj9/bmJiYm5uXl9fT4G7jx8/NjIy2rx5c0dHBwXmYAIESAJ79uwJDAwcHBwEEMgk+gAIKEygoaHB1NR04cKFat2QTyqV5uXlGRsb79+/n8fjKewlKoDAJAgcOXLE19e3v79/Em3oSFXIpI4kEmFQTKCtrW3jxo0GBgZqeqFGIpHcunXL2NjYxcVleHiY4uhgDgQcHR09PDyoH4anIXnIJA2TApe0gwCXy929e7eBgUFeXp5q35sXi8UpKSl0mIKiHZmAl2og4Onp6eTkxOVy1dC2ljUJmdSyhMFdWhEYHBx0dHRctGjRrVu3VLWg3cjISEJCgqGhYVxcHBZrpVW6GeXMqVOnjh8/3tXVxaioxwwWMjkmFpwEAXkJCASCgIAAQ0PDlJSUySulSCSKiIgwMjK6fPkypqzJmwOUUwOBM2fOHDhwgMViqaFtLWsSMqllCYO7NCQgEoliYmIMDQ0TExMnsxC5QCDw9vY2MjJKT0+fvOLSEBRc0iIC0dHRe/bswfvVWIVHizotXKU1AbFYfOXKFUNDw8jISOWelPb39x87dszIyOj27duqHemkNTg4R1cCCQkJ1tbWra2tdHWQOr9wN0kda1jSbQKypV/9/PwUXfqVw+HY2NgYGRndv39ftykhOm0hkJKSsnXr1ubmZm1xWH1+QibVxxYtM44AufTr999/b29vPzQ0JGf8LS0tq1evNjY2fvr0qZxVUAwE1E0gMzNz/fr1WPgJD13V3dPQPhMJFBYWLl68eNeuXfK8TF9bW7t48WJjY+Pq6momwkLMdCVw584dS0vLuro6ujpInV+4m6SONSwxh0BJScnixYvXrVvX1tY2TtSlpaWLFy+2tLTEo61xKOGSRgjcv3/fwsICv95wN6mR7gejjCBQVVW1ZMmSpUuXvun3+MOHD42Nja2srNhsNiOIIEitIlBcXLxkyRK1LseoLTxwN6ktmYKf2kegsbFx+fLlixYtKisrG+29VCrNzc01NjY+cuRIX1/f6Es4BgGaEKisrDQ0NCwvL6eJPxp0AzKpQfgwrfsEOjs7t27damho+PDhQzJaiURy48YNY2NjDw8P7FKk+z1AayNsaGj47rvvSktLtTYClTkOmVQZSjQEAmMS6OnpOXjwoKGhYV5eHp/PT0lJMTIyOnPmDDa8HRMXTtKEQEdHx7x580pKSmjijwbdgExqED5MM4UAn893c3OzsLCws7MzNTU9f/78ZBbrYQo1xKlRAjwe789//rOaNsDRaGQKG4dMKowMFUBACQJCoTAgIODrr7/GYq1K0EMV6gkMDQ199tlnjx49ot403SxCJumWEfijswSEQmFPTw8WNNfZBOtWYFKp9JNPPnnw4IFuhaVMNJBJZaihDgiAAAjoPIG5c+feu3dP58OcMEDI5ISIUAAEQAAEmEjgiy++uH37NhMj/3nMkMmf88BfIAACIAACLwl89913GRkZgAGZRB8AARAAARAYg4CRkdG1a9fGuMCwU5BJhiUc4YIACICAfARMTU0vXbqE3U8hk/L1F5QCARAAAYYRsLS0vHDhAt7NhkwyrOMjXBABKfmUAAAgAElEQVQAARCQj8DGjRujoqJEIpF8xXW2FGRSZ1OLwEAABEBgMgSsrKzCwsKw8jBkcjK9CHVBAARAQGcJ7N69Ozg4eGhoSGcjlC8wyKR8nFAKBEAABBhG4PDhw76+vv39/QyL+9VwIZOvEsHfIAACIAACLwg4ODh4eHj09vYynAZkkuEdAOGDAAiAwNgE3N3dnZycuFzu2JcZcxYyyZhUI1AQAAEQUISAv7//8ePHu7q6FKmkg2UhkzqYVIQEAiAAApMnEBoaeuDAARaLNfmmtLoFyKRWpw/OgwAIgIC6CERFRe3Zs6ejo0NdBrSkXcikliQKboIACIAAtQQSEhJsbGxaW1upNUs7a5BJ2qUEDoEACIAAHQgkJydv3bq1ubmZDs5o0AfIpAbhwzQIgAAI0JdAZmbmhg0bGhoa6OsiJZ5BJinBDCMgAAIgoG0EcnJyLC0t6+rqtM1xFfsLmVQxUDQHAiAAArpBoLCw0MLCorq6WjfCUToKyKTS6FARBEAABHSZQHFx8ZIlSyorK3U5SDlig0zKAQlFQAAEQIB5BCoqKgwNDcvLy5kX+s8ihkz+DAf+AAEQAAEQIAk0NDR89913paWlDAcCmWR4B0D4IAACIDA2gfb29nnz5pWUlIx9mTFnIZOMSTUCBQEQAAFFCPB4vL/85S9PnjxRpJIOloVM6mBSERIIgAAITJ7A0NDQZ5999ujRo8k3pdUtQCa1On1wHgRAAATURUAikXzyyScPHjxQlwEtaRcyqSWJgpsgAAIgQDmBuXPn3rt3j3Kz9DIImaRXPuANCIAACNCHwBdffHH79m36+KMRTyCTGsEOoyAAAiCgBQS+/fbbzMxMLXBUnS5CJtVJF22DAAiAgDYTMDIyunbtmjZHoALfIZMqgIgmQAAEQEAnCZiaml66dEknQ5M/KMik/KxQEgRAAASYRcDS0vLChQtisZhZYf88Wsjkz3ngLxAAARAAgX8S2LhxY1RUlEgk+ucJJv4LmWRi1hEzCIAACMhDYMeOHWFhYXw+X57CuloGMqmrmUVcIAACIDBZArt37w4ODh4aGppsQ9pcHzKpzdmD7yAAAiCgTgKHDh3y9fXt7+9XpxG6tw2ZpHuG4B8IgAAIaIqAg4ODh4dHb2+vphygg13IJB2yAB9AAARAgI4E3N3dnZ2duVwuHZ2jyifIJFWkYQcEQAAEtI2Av7//8ePHu7q6tM1xVfoLmVQlTbQFAiAAArpEIDQ09ODBgywWS5eCUjQWyKSixFAeBEAABJhCIDIycs+ePR0dHUwJeKw4IZNjUcE5EAABEAABgkhISLCxsWltbWUyDMgkk7OP2EEABEBgPALJyclbt25taWkZr5CuX4NM6nqGER8IgAAIKEhgaGhoYGBAKpVmZWVt2rSppaVFIBDk5eUx85VXyKSC3QfFQQAEQEDXCXh6ei5YsODChQvXr1//4Ycf0tLS9u7dO3Xq1PT0dF0PfYz4IJNjQMEpEAABEGAygWvXrv3+97//zW9+88c//vEPf/jDf//3f0+ZMuVvf/tbU1MTA7FAJhmYdIQMAiAAAuMRGBkZsbS01Hv5+cUvfqGnpzdlypSoqChm7qgFmRyvr+AaCIAACDCTQEFBwaxZs0il1NPT++STTxobG5mJQvdlUiqVDgwM9Pb2SiSSp0+ffvzxxwRBCIXCnp6e4eFhZmYdUYMACIDA+ASkUqmtre2UKVPIW0kfHx+BQDB+FV29qvsyOTQ05OTkNGvWrISEhLt373766aetra2HDx+ePXt2UlKSruYVcYEACIDAJAlUVFTMnj1bT0/vvffeq66unmRr2ltd92VSKpXm5+dPmTLlvffe++CDD375y1/OmDHjV7/61Zw5c5j5crP2dlZ4DgIgQDEBZ2fn//mf/zl+/PjIyAjFpuljTvdlkiCI3t7ebdu2kQ/Zf/WrX+np6f3nf/6nv78/fdIAT0AABHSSAJ/P53A4LO38sNns4uLiFStW3L17VzsjmKzXHA6nv7+fETJJEMSjR49++ctf6unpvfXWW3p6ep999hnDNxrVya8kBAUCtCIgkUiOHDkyQ5s/M2fOnDp1qjZHMFnfjY2NmSKTo28o3377bdxK0urbBM6AgE4SKC0tNTMzS01N7dDaT2dnJ4fD6ezs1NoIlHe8vb09Njb2m2++YYpMjr6hxK2kTn4lISgQoBuByMhIOzs7hi+ISrekyO+PRCLx9vY+dOgQg2SSz+fv2LHj3XffDQ4Olp8USoIACICAcgSsrKy8vLyGhoaUq45amiXQ29trbm6ekpIyKZns7++f7AgptfVv3LixatWqqqoqas1qzFpXVxfmhmr2fxqsM5aARCL54osvEhISGEtA2wNvbm6eNWtWW1ub8jLJYrFMTEz09fUnO0JKYX19ff3f//73M2fOpNCmxkzp6+tPnz792LFj2t5Z4T8IaCOB0tJSExOTgoICbXQePkul0tTU1GXLlg0ODiopk2Kx+NKlSxYWFnV1dcqPkFJek8ViMWc4urq6+sCBA7t27UKPBwEQoJ5AZGTkzp076+vrqTcNi5MnwOfznZ2dnZychEKhkjI5ODh46NAhLy+vyXuDFtREoLGxcefOnRcuXFBT+2gWBEBgHAIYmBwHDv0v9fX1mZmZXbt2jSAIJWWSzWYvWrQoNzeX/tEy1sOcnJzFixfX1tYylgACBwFNEcDApKbIq8puS0vL7NmzydXelZTJ4uLizz//HIu9qSolKm9HKpVGREQYGhpKpVKVN44GQQAExieAgcnx+dD8qlQqTUtLMzEx6enpUfJuUiQSnTt3bvPmzXiLkrbJ7u7uPnHixNGjR2nrIRwDAR0mgIFJrU6ubGCS1Dhl7ib7+vpsbW3PnDnD5MVwad4JysrKNm3alJaWRnM/4R4I6CQBDExqdVr7+vpMTU2vXbtGPo1TRiY7Ojrmz59fVFSk1SB02/mbN28aGBiwWCzdDhPRgQANCWBgkoZJUcillpaWWbNmNTQ0kLWUkcl79+599dVX5ENbhWyjMDUEpFJpaGjo8uXLqTEHKyAAAqMJYGByNA2tOyYHJpctW8bj8UjnFZZJPp8fEBCwa9cuPp+vdfEzxOHOzs7Dhw97enoyJF6ECQK0IoCBSVqlQ1Fn+Hy+i4uLo6OjbJVBhWWyp6dn3bp158+fF4vFippHeWoIPH782NLS8u7du9SYgxUQAIHRBDAwOZqG1h3LBiYlEgnpvMIy2draOnfu3MrKSq0LnjkOX79+/euvvx4cHGROyIgUBGhCAAOTNEmE0m68MjCp8IQQqVSakZFhZGTU19entBOoqFYCAoHA399/w4YNarWCxkEABMYkUFZWhqVcxySjFSdfH5hUWCaHhoZOnjx5/PhxgUCgFTEz0Mnm5ua9e/eePn2agbEjZBDQOIGoqCgs5arxLCjtwOsDkwrLZHd3t5mZ2fXr17G2i9JpUHfFwsJCU1PT4uJidRtC+yAAAq8TsLGxwR6Tr2PRljOvD0wqLJM1NTWzZs1qbW3VlpgZ6Gd8fPwXX3whG3xmIAGEDAKaIiCRSL788kvsMakp/pO3+/rApGIyKRaLk5KSLCws8G7I5JOhphYGBgbc3d1tbW3V1D6aBQEQGIdAWVmZqalpfn7+OGVwibYExhyYVEwmZZtnCYVC2sbJcMdqamqsrKyweRbDuwHC1xQBDExqirxK7I45MKmYTLLZbAMDgzt37qjEITSiDgK5ubnff/89Ns9SB1u0CQITErC2tvb09JRNS5+wPArQisCYA5OKyWRxcfHcuXO7u7tpFRickRGQSqWRkZGLFi3CC1YyJjgAAcoISCSSv/3tb3iWQxlwlRsac2BSAZkUiUSRkZGbNm3CDyWV50ZVDb74BePg4HDkyBFVNYh2QAAE5CdAzpjMy8uTvwpK0ofAmwYmFZDJ/v5+Ozu70NBQbJ5Fn7y+4gm5eVZqauor5/EnCIAABQTIgcm6ujoKbMGEygkIBIJXlnKVmZB3sbrOzs6vvvoKm2fJwNHw4ObNm3//+9+xeRYNUwOXmECAHJjERAAtzXV/f7+ZmVlKSsrrs+nklcm8vLyvv/5atrGIloLQYbfJzbPMzc11OEaEBgK0JYCBSdqmRk7H2tra5syZI9tjcnQtuWRSIBAEBgbu3r0bm2eNZkerYxaLdfjwYQ8PD1p5BWdAgCEEMDCp1YmWSqXp6ekmJiZj3grKJZO9vb3r16/H5ll07gfFxcWWlpa5ubl0dhK+gYCuEsDApFZndpyBSXlf4Wlra5s7d25FRYVWg9Bt59PS0rB5lm6nGNHRmQAGJumcnQl9G2dgUl6ZzMzMNDQ07O3tndAYCmiEgEAgCAgIwOZZGoEPoyCAgUlt7wNtbW2zZs1601vKEz90HR4ednNzO3bsGDbPom1XaGlpweZZtM0OHNN5AhiYpE+KpVKp7B0aoVAoz1or5MDksmXLuFzumIFMLJM8Hs/c3PzatWvy2BvTBk6qm8CDBw+weZa6IaN9EHgTgfEHJoeGhthsNovF6u7u5nA4LBaLx+NhAvqbYE7yvEgkio+Pz8/PLy8vv3z5sjzr4Yw/MCnXQ9e6urpZs2a1tLRM0ntUVx+BxMTEv/71r69P91GfRbQMAiAgIzD+wGRUVNTnn3/+4Ycfvvfee3/4wx/09fU3btzY1NQkq44D1RIoLy9ftmzZ7Nmzb9y4IU/L5MDk1atX3/QVOsHdpFgsvnz5soWFxcDAgDz2UEZpAlKpVPaIQCQSyX/vPjAw4OnpaWNjo7RpVAQBEFCawIQDk4ODgywW69mzZ8uXLw8JCWlvb+dyuUNDQ0KhsL+/n81mkysSkE8LxWIxQRASiWR4eFgsFkskEj6fL5FIxGLxwMAAn88fHh4mv83J8sPDw11dXRwOp6uri81m9/T0CIVCgUBAlhGJRGR1gUAgu38dGhoSiUSylqVSaX9/v0gkkhEQCASyP/l8/uhj9suPzMn+/n7ZYJxEIunt7ZU98OTz+aML9/X1DQ8PEwQhEAjIL7rh4eH+/n6xWDw8PEzeZLNYrL6+PjJYPp9PfgeSIUilUoFAQBZjs9nkLlVisVhWTCgUksdk+1wul2xNFrUsutcPxh+YnPhucnBw8MiRI15eXuNsniUSibq7u1ksFpkqFovFZrNlsF73CWfGJDA0NJSdnZ2eni7/swKyndraWmtr6/Pnz4/ZLE6CAAiolUB5ebmJicmES7nyeLxt27ZduXKFdObixYseHh42NjYfffTR1q1bWSwWl8v18/N7/vw5QRC3bt3av39/ZWVlXV1dYGBge3v73bt3jx8/npaW5uzsXFpaShBEW1tbQEBAbGzsggULpk2bNnXq1A8//NDKyurmzZukGBMEkZWV5ePj09LSEh4eTnrY3Ny8devWrKyslpYWf3//hoaGsrIyGxub4uJiGaXIyMjMzEyhUDgyMuLm5paamkoKkru7+0cfffTBBx/ExcWJRKKWlpaVK1eeOnWK1L/Hjx/PmTPH29t7ZGRkeHjYyclp1qxZ06ZNS0xM7Orq2rdvn4ODQ09PT1RU1IULF7q7u11dXQ8fPtzY2Ojm5jZ79uwZM2Z8+OGHFhYW9fX1JSUlQUFB5Euj/v7+Xl5efX19YWFhc+bM0dfXnzlzZlhY2PDw8JMnT4KCggYGBqRSqa+vr4+PD4/HO3v27L179wiC6Orq2rRp082bN990j0jGO+HA5MQyyeFwFi1alJOTIyP4+kFZWdmyZcv09fXff//9qVOn6uvrf/bZZ2lpaa+XxJnxCdTW1q5cuXLu3LmXLl0av+Toq3fv3jU2Nq6pqRl9EscgAALUEIiOjt65c+ebXpKU+cBisTZv3nzx4kXyTExMzLx58+Li4pqammxtbaOiourr60+ePFlWVsbn8/fs2WNmZlb18uPt7V1aWurp6Zmbm9vX17dv3z7y2/XmzZthYWFtbW0cDicuLm7v3r1Pnjzh8XhPnjzx9PQkF628efOmo6NjY2Ojv7//7du3pVLpuXPn/vrXv6alpTU1NZ08efLZs2cBAQEZGRmym0KCIIKDg2Vf4Pb29pcvXxYKhREREY6Ojg0NDQUFBSYmJtnZ2Y2NjVu3brWxsWlvbycIIigo6Ne//vXJkyf5fH5ERAQpvVlZWUuWLCELHzt27NmzZyEhIVFRUUVFRU5OTpWVlYODgy4uLqmpqR0dHeXl5Xv37q2oqHj48KGnp2dPT091dbWhoeHBgwd5PF5QUNDly5e7urqqq6vt7OwePnxYUFDg5eXV39///PlzAwODo0eP8ni8gICA7OxskUh0/vz5qVOnXr16VZaCMQ8mHJicWCZLSkrmzp3b1dU1pgHypEgk6urqampq8vb23r59e1VVFYvFGhgYGH75YbPZspkkIpFIlgzyyQB5Ky0Wi6VS6dA/PzLxF7z88Hg8Npvd3d3NZrM5HI5AICAfIxAEIRaLh4aGJBLJyMiI7P5VdpMuMycUCgcHB2WPMSUSyYstpmXlyT/JH0QEQQwNDZGD7VKpVCKR9PX1jb6XJwv09/eTtciReTabTZ4Z7Qb5EIB8yEA+K+BwOKRR8qcZGaYsBNLtnp4e8lnBOLfvo3MhlUqjo6MNDAxk0Y2+imMQAAF1E7C1tfX09JxwKddXZDI6Onrv3r3kCGVmZqazs3NBQYGvr29FRUViYqK3t/fhw4erX35cXFxOnz4dHx9PLhBz9uzZS5cu9ff3BwQE3Lp1i/yPn52d7erqyuFwCIIoLS11dHQsLi5msVgXLlxwdHRsbm4ODAzMzc0tLi4+efKkra1tQUFBQ0ODs7NzbGxscHDwKwtBh4aGxsXFtbS0tLW17du3Lzk5ubu7e9u2badPn+7q6uro6LC2tk5MTKyurnZxcTly5Mjjx495PN7x48fXrl37QiA5HM6xY8fI3/ovvhIPHToUHh4uEAhu3rwZExNjb2/v7+/v7e0dHx9Pfkm6ubk9fvyYIIi+vr5jx45VVlYWFRX5+vo2Nzf7+fl5eHh4eXl1dXWFhIRcvXqVy+XW1tYePXq0urr6wYMHfn5+LS0t3t7enp6ePj4+3d3dp0+fvn37dmlpqZOT086dO3NycshHxG/qBhMOTE4gkyKRKCoqauPGjRP2ANKDmJiYw4cPk0rw7NmznTt3uri4zJ49e9myZRUVFRKJJDc398yZMwRBDAwMuLi4hIWFcbnckJCQkpKStra2EydOREZGnjhx4sGDBwRB9PT0nD59+tq1a2vWrJk+ffrvfve76dOnz5s3LyMjw9fXl1x5r6Ki4sCBA3V1dUVFRadOnRKJRMPDwyEhIe7u7n19fdnZ2dHR0QMDA+Hh4T4+PjKFbm5utrW1fZFgUopKSkq+//57Nzc3qVTa3d29b9++Dz/8cO7cuZmZmS0tLfv27SPpR0VFxcfHc7ncw4cP29vbt7a2Hjhw4MXzB/JZwaZNm1pbW/Py8oKDg8l8+/n5+fr6ikSiuLi4999/f8aMGX/84x8DAgJEIlFVVZWvry/ZNZOTk21tbRsbG9PS0sgHpywW69ixY/Hx8W/K6+jzXC7Xycnp8OHDo0/iGARAgBoCEolk3rx58uwx+YpMRkVF+fv7k9v33r5929HRMT8//9SpU+np6b6+vpmZmd7e3hUVFXV1dZ9//vm6desaGxtJRSwtLfXx8cnPz/f29iaf0BIEkZmZ6eTk1NbWRhBEeXn5n/70J/Kr6Xe/+52NjU1nZ2dQUNCNGzd8fHwyMzM9PT3z8vKamppWrFixbt260tJS2Z0JCS08PJx8vKmvr/9f//Vf8fHxPT09W7ZsmTZt2owZM2bOnDl9+vSQkJDKykp3d3d/f/8LFy48ffo0PDzcyckpJiamubl527ZtKSkppMNBQUFhYWFDQ0MDAwOBgYHvv//+O++8Q36pEgQxODjo5uZ2//598jHp0aNHZTKZnp7u7++fkZEREBDA5XIDAwP1X35mzJgRGBg4ODj46NEjHx8fWbHAwEAOhxMaGkpWSUtL8/X1zcnJGX94csKByQlkktw8KyQkRDaEO07PEwgE586dO3DgQF9fH0EQBQUFX375pbe3d0NDQ2hoqL29fXd3d1ZWlr+//8jISH5+/tdff+3r69vd3e3n55efn5+RkREUFMRiscLDw4OCgqRSaXV19ZEjR8jh7jt37qxZsyYvL4/NZtfW1jo6OpK/wiorK62srKqqqgoKCtzc3AQCwbNnz5YsWXL06NHe3t6MjIyQkJCnT5+eOHHihQzL7rfILFpbWzc3N5NbGf/6178+ceJEb29vcHDwtm3bamtrExISli1b9vTp02fPnrm5uT158iQ8PDwiIuLx48eHDx/mcDjt7e2urq5ZWVkdHR337t2zt7evr6/Pzs729vaWSqUPHjwwMjJydXUdGBi4dOmSr68vl8stKytzcHC4d+9eRUWFs7MzOb69devW5cuX19XVXb58OSIiQiqVJiUlffnll1FRUePQll16/vz5pk2brl+/LjuDAxAAAcoIlJeXm5qaTjgwSRDEKzL54hf8/v37W1tbCYKIjIw8cuTIgwcPXnwl2tnZXb16tba21tPT8/nz59XV1c7OzsnJyWfOnGlubiZ1xdnZ+ejRo5GRkbJ5fqNl8tmzZw4ODk+ePOno6Dh//jx5NxkUFOTm5ubu7t7U1BQQEJCbm9vQ0ODk5JSamhoYGFhbWzuaWGhoaGxsbHNzc2trK3k32dXVtXfv3vj4eM7LT11dHY/Hq6urO3nyZFZWloeHx6lTp7Kzs319fSMjI9ls9it3k2FhYV1dXV5eXteuXXNxcfHz84uPjz916lRvb69YLPbw8HhFJh8/fnzgwIGDBw8WFRUVFhb6+flxOJyQkJArV650dXW1tLQcP348KyuroKDgwIEDhw4devz4cX5+vr+/f1dXV1BQ0MmTJ52dnVtaWoKCgrKzs8eRSXkGJieQyc7Ozvnz5z969Gg0wTcdvyKThYWFK1eufJEwgiCqqqpsbGzKysqys7NPnz7d3Nzs4uLi6ekZEhJCymRUVJS3tzc5uvbgwQM3Nzcej3fz5k1SLwmCqKmpsbOza2xsJAiitbX1xIkT9+/fZ7FYubm5VlZWL55f379/38/Pr7W11cfHx9PTkxzyvXHjhr29fXR0dEZGxmi3Gxsbjxw5EhAQcPPmze7u7pMnT+7atcvV1bW5udnR0ZEcY+/q6jp48OC5c+dGRkaysrK8vb39/PwcHR3Pnj0bExNDEER7ezv5c48giIaGBjc3t4aGhpycnKCgoObmZk9PTzc3t4CAgIGBgeTk5ICAgJ6enrKyMk9Pz6qqqoqKCg8Pj5qamuvXr+/atcvd3b22tjY5OTkmJqa2ttbe3t7d3V1OmczKylq4cGFnZ+foAHEMAiBADQE5ByYJgujs7Fy/fn1CQgLpWFxc3JIlSzIyMtrb221sbKKiohobG1euXGlqalpTU8Nms11cXMrLyysrK728vJqbm8+fP5+QkNDf308QRGxs7Lx5865evSr76Z+enn7ixAlSdJ8+fTp6bNLJyampqcnd3f2LL75IT08XCoVeXl45OTnkUGhtbW1GRsbZs2fJB7akb2OOTZ47d87Z2bmpqamiomLdunVpaWk1NTWkkx4eHqtWrcrPzw8ICAgPD+/v7yfHJktKSm7fvr106dKsrKz8/HwfH5/Ozs4zZ85ERUW1t7f7+Pjk5ua+mGro4OBAyuSLYalDhw5VVVXdv39/2rRp+/fvJ28Zvby8OBxOUFDQlStXuFxua2vr/v37b968mZOTM23atEOHDg0NDd2/f9/b25vL5Xp4eLz//vvXr18XCoV+fn63bt0aRyYFAoGrq6uDg8P40yvHmxCSn5//1VdfyX6wjN/tXpHJBw8eWFtbk1/fL7JubW1dUlKSk5Pj7++fnp5OPlsIDQ3t7e09ePDgJ5988kLSyBv/1tZW8seFj48P+fSVfIxgbW1dXV1N9raNGzeSt/9/+MMfFi9eXFtb+/DhQw8Pj1u3bnl6et66dcvHx2dwcPDChQvTpk0LDAx8BUFDQ4Ojo2NsbKy/v39lZSX5C8jV1fX58+d79uzJzMwkHwuHvPwQBMHlcl1dXd95550PP/wwPDycHGpta2vz8vJ6+vQp+Tvg5MmTDQ0Nd+/e9fLyunHjhre3N3njLxAIIiMj33nnnRkzZnz66adeXl58Pv/58+deXl43b9709fVNT0/38fEhJTMoKOj69evBwcFXr149d+7c+MAJgpBKpWFhYWZmZhOWRAEQAAF1ELC1tfXw8JBnWOrFCxbknSLpRmxs7N69ey0sLPT19e3t7Xt7e7lcrpWVVVJSkkQiYbPZfn5+VVVVtbW1gYGBbW1tLBbr6NGj5I6/JSUlO3fuJG9CyNays7M9PT07OjrIb8uAgADytRryJz75Uquvr29vb69UKg0KCsrPz29qavLz82toaBgYGDh27Njdu3dlojv6TdeTJ09ev36dnLZx8uTJjz/+ePr06eSoVktLi4+PT1NTU2Rk5O7duxsaGqKiomJiYsi3UhwdHck3XRMSEjgcjqenZ3l5OUEQZ8+ejYuLEwgEtbW1e/fuXbFihaWlJfnd3tXV5eLiUltb+/jx47Vr15Lfro8fPw4ODubxeGFhYbNnzyafu+7cuZPFYj169Gjt2rUvntIRBPHo0aPTp09zudzQ0FBHR8eBgQGJRBIaGpqbmzuOTA4MDJibm48zY5LE+0aZFAgEQUFBu3btkr3bMn4ne0UmCwsLV61aRa6Wfv/+/R9++KGsrCwnJ2fnzp2Ojo7knWVISEhXV5e/v39iYmJwcDD5g2J4eJh8UHDo0CHZq0Pl5eUymWxpaTlx4kRhYWFHR8edO3d27NhRXV1dVFS0e/duBweHhw8fFhYW+vj49Pb2ZmZmuri4pKWlRUZGjn74Xl9f7+7unp2d7ezsHB8ff/bs2eTkZFdX16amJkdHx+TkZH5aDccAACAASURBVPIp+cGDB6Ojo9lstr+/f0JCgo+Pj4eHR3JyspeXF0EQbDbbx8fnFZnMz8+3sbFxdXV98uTJnTt3Tp061d/fn5ycfOrUKS6X29jYSA7F19bWHj582NPT8/z581VVVZ6enrW1tVevXt2+fbuvr291dXVycrI8MslisY4cOeLu7j5+anAVBEBAHQTIgcm4uDh5Gidf+pO9mnfu3DkfH5/a2tqOjg7yO1YqlQ4ODsqmJJLzJsUvpwaSX18DAwPk24hhYWEhISGjb2DI1zLIYqOryM6/Mv1xZGRENjWTfJArc4x861A20DY8PCy7NDw8zGKxOjs7yfc8yBYkEolAICBfpSRfuiTllizMYrHIiGQvUfL5fNlrIn19fd3d3b29vaTnMpdGRkZk9zbke5HkJFE2m93R0dHZ2UnO439TMZnDo6MeM0ft7e1z5syZ8C3lN8pkX1/fhg0b4uLixn9NSGZbIBCEh4fv3buXHJssLCz87rvvyAfc5Nhkb29vcnLyu+++6+vrKxQKb926FRgYSIpNUVFRWVmZ7KFBXl7eN9984+fnJ/t1U1ZWtm3btqqqKoIgSDEbPTZZW1t7586dP//5zydOnBgaGiooKPDw8Ojp6UlPTw8PD+/s7PTx8SksLJQpZW1traur67NnzwIDAzds2JCcnPziQauDgwP5zvG2bdvq6+sTExNNTEwePXp0+/btU6dOdXR0hIeHR0VFtbW1eXp6FhUVVVZWOjk5kT/oKisrnZ2dm5ubU1NTP//8cy8vL4FAkJWV5evr29/ff/nyZT8/v56enoaGBh8fn7i4uNra2mXLlllaWrJYrIqKCjc3t8bGxoCAgHfffTcxMVEoFCYlJYWHh8vYvumguLh41apVd+7ceVMBnAcBEFAfAXJgkpylp6iVCxcunDlzhvy2VKhuSEiItbV1RUWF7OtRoeooLCMglUozMjLGWcpVVvKNMtnR0fH555/L3qSSVXjTgUAgiIuLO3HiBPn0vKioaP369du2bZszZ87mzZvJpwGZmZnr169/MbgolUrv3LkTERHR1dV1+vTp4uLi4eHhmJiYyMhIctqsjY1NQUGBzFZlZeX+/fvJcebW1lYvL6/6+nqCIMg3Xevr6/Py8jZt2lRZWUkQxMOHD4OCgvr6+rKyss6dO0faIh9rkA02NDT4+vrW1dUlJSWtXLmyqqoqLS3N3d1dIpGQI9Xkm64ZGRkNDQ3+/v5NTU2Dg4ORkZHR0dEEQRQXF+/YsWPdyw85GFBbW+vr69va2nrjxo2tW7eSY6i5ubkhISFCoVD2pqu+vv6WLVtYLFZVVdXevXvT09MJgqisrDx16lRTU1NsbKyVldWL9RyEQuG1a9fk+YmalpY2f/58LJAk6yc4AAEqCZADk6+8/yKnA+TENiWkbmBgoL+/X4mKcjrGnGJyDkyO9wrPzZs3jYyMZFMeJ2RHzoAcGhoi83f//n3ycWhnZ6fsFxP5BIBsipzUSN5Kk8+OhULh0NAQn8/PyMjYt2/f6CFlsVj8+uMI2bxJsVgsEolev0mXzZsUi8XkvEbStOxZAblYlEQiEQqFsmfLQ0NDnZ2dXV1dkpcfslkyOvJZgVQq7e3t5fF4fX19ZLDkg3uJRDLaDXIeJEEQ5KJN5LMCEoVsriQZAp/PF4vFsnmW5Kp1sucSbyIvFAoDAgLWr1//pgI4DwIgoFYC8g9MqtUNNK4cgYGBATMzswkHJt8ok3w+f5KbZxUVFf3444+ywUX5w7h+/fqf/vSn0ePJ8tdlVElyTic5TZNRgSNYEKADAYUGJungMHx4hUB7e/usWbPkeRgw9kPXnp4ec3Nz2fzQV1qX509ycFU2HChPFbIMuQyuEhXlN6EbJR8+fGhmZvbkyRPdCAdRgIB2EZjMwKR2RaqT3pIDk0uXLiVXeBg/xrFlsr6+ftasWeRs1vHr46qmCCQlJX3xxRf4PaEp/rDLcAKTGZhkODo6hC8bmJRnMs8YMimRSK5cuWJubk6+jEOHkODDKwQGBgZeTLnF5lmvYMGfIEAZAQxMUoZaHYbIgcnk5GR57jTGkMkXG6EdOXLE09NzwrdI1OE92pSHQF1dHTbPkgcUyoCAOghgYFIdVKlsU/6BybFf4enq6lq0aFF2djaVTsOWQgTy8vKMjY3JpSsUqojCIAACkyeAgcnJM9RgCwoNTI4tk8+ePZs7dy6bzdZgGDA9PoHY2Ni///3vmDs1PiVcBQE1EcDApJrAUtOsQgOTY8ikSCSKjo6Wf/MsaqKCldEEeDyes7PzoUOHRp/EMQiAAGUEMDBJGWp1GFJoYHIMmRwYGLCzszt9+rRsTT91eIk2J0OgoqJi06ZN165dm0wjqAsCIKAcAQxMKseNPrUUGpgcQyZZLNb8+fMfPnxIn5DgySsEbt++vXDhQnL9v1cu4U8QAAF1E3j+/LmpqalyS7mq2ze0PyEBRQcmx5DJgoKCr776Sp4ZlxN6gwLqICCVSs+ePWtqaqqOxtEmCIDAhARiYmLs7OzkWb1lwqZQgHoCig5MviqT5OZZO3fulK2PSn0MsDg+AXLbOTc3t/GL4SoIgICaCNjZ2bm7u8szLV1NDqDZyRBQdGDyVZns6+tbv359bGysnJtnTcZX1FWOQElJyapVq3JycpSrjlogAAKTISCRSObPny/PBj6TsYK66iOg6MDkqzLZ0dExd+5cco9p9XmJlidDICMjY968edg8azIMURcElCZADkzevXtX6RZQUbMEMjMz5VzKVebnz1bhuXnzpqGhYU9Pj+wyDmhFQCAQBAYGrl27llZewRkQYA4BDExqda6FQuHJkycdHBwUemb+L5nk8/nu7u5Hjx7l8/laDUKHncfmWTqcXISmFQTs7Ozc3NwU+pLVirgY4uTg4KC5ubmcS7nKmPxLJnt7ey0sLFJSUuRZClZWHwdUEnj48KGpqSk2z6KSOWyBgIwAOWMyJiZGdgYH2kWgo6Njzpw5ir6l/C+ZbGhomD17NjbPonPWk5KS/vKXv+B3DJ1zBN90mAA5MJmbm6vDMepwaFKpNDMzc9myZYrOePyHTEokkuTkZAsLC2yeRdteMjg46OXlZW1tTVsP4RgI6DYBcmCypqZGt8PU1eiUG5j815uuw8PDR48exeZZdO4f9fX1NjY2eBOdzjmCb7pNgByYxHvmWpplcmDyypUrij6Q+8fdJJfLXbRoUVZWlpbGzwS38/PzsXkWExKNGOlJAAOT9MyL/F51dnbOnj1bif0H/yGTpaWlc+fOZbFY8ptESSoJSKXSuLg4bJ5FJXPYAoHRBDAwOZqG1h2TA5NLly7lcDiKOv+TTI6MjMTExGzYsAEPExTFR1l5Ho/n4uKCzbMoAw5DIPAKAQxMvgJEu/4kByZPnDihhMz9JJODg4M7d+4MDg4WCoXaFTlzvK2srMTmWcxJNyKlIQEMTNIwKfK7pPTA5D9e4eFwOPPnz79//778JlGSYgI5OTkLFizA5lkUY4c5ECAJYGBS23uC0gOT/5DJwsLC+fPnd3V1aTsIXfVfKpVGRESYmJjoaoCICwRoTgADkzRP0PjuTWZg8ieZFIvFwcHBdnZ22DxrfNAavMpms48ePfpiKUIN+gDTIMBkAhiY1OrsT2Zg8ieZHB4e3rBhQ0xMzMjIiFaD0GHnnz17hs2zdDi/CI3+BDAwSf8cjePhZAYmf5JJLpc7d+7csrKycWzgkmYJ3Lhx48svv8QCSZrNAqwzlgAGJrU99ZMZmPxJJm/dumVkZMTj8bQdhK76LxQKg4OD16xZo6sBIi4QoDkBDEzSPEHjuzfJgcmfZNLBwcHFxUUsFo9vCVc1RaCzs3Pv3r1BQUGacgB2QYDhBGJiYvbs2YNtIbS3G7i6utrb2ysxY5IMWW/BggVRUVEdHR0sBnzYbDaXy9WuQG/cuGFubv748WPt7aPwHAS0msCuXbsOHjxYV1enXV8dKvGW/M5ks9kqaU0jjdTX15uamiqxlKus0+oZGRnp6+vPYMbngw8++O1vf6td8err6x84cEDRtXplCcYBCIDAJAk4ODhMnz5du743VPWN/uGHH77zzjsffPCBqhqkvh19ff1ly5ZNZilWvb6+Pjab3cGMT0ZGxrRp09ra2rQoXBaLNTw8PMn/56gOAiCgNIHh4WEOh9PZ2alF3xuqcvX+/ft//vOfs7OzVdUg9e28GLfq6+tTOvs/jU1OprLW1X369OnHH3+sdW7DYRAAARDQCIEHDx6sXLmyqalJI9ZpYpRZMllUVPTRRx/hfSWadD64AQIgQHMCsbGxdnZ2bW1tNPdTre5BJtWKF42DAAiAgBYTcHV1dXZ2ZviMQcikFvdguA4CIAACaiWwbdu2M2fO8Pl8tVqheeOQSZonCO6BAAiAgMYILFq06OrVqxozTw/DkEl65AFegAAIgADNCIjF4k8//bSgoIBmflHtDmSSauKwBwIgAAJaQaCxsfHrr79+9uyZVnirPichk+pji5ZBAARAQIsJ5Obmrlixora2VotjUIXrkElVUEQbIAACIKBzBDAbhEwpZFLnujYCAgEQAAFVEMBsEJIiZFIVvQltgAAIgIDOEcBsEDKlkEmd69oICARAAARUQQCzQUiKkElV9Ca0AQIgAAK6RWBkZOSTTz7BbBDGLX2ONV116z8yogEBEFAXgcbGxq+++gqzQSCT6uphaBcEQAAEtJoAZoPI0oeHrjIUOAABEAABEPgHAcwGkXUFyKQMBQ5AAARAAAT+QQCzQWRdATIpQ4EDEAABEACBfxDYsWMH9gYhWUAm8b8CBEAABEDgVQJGRkbYG4SEApl8tXPgbxAAARBgOAGxWPx///d/mA1CdgPIJMP/OyB8EAABEHiVQFNT0zfffIPZICQXyOSr/QN/gwAIgADDCdy9e3flypXYG4TsBpBJhv93QPggAAIg8CoBzAYZTQQyOZoGjkEABEAABAjMBhndCSCTo2ngGARAAARAgNi+fTtmg8j6AWRShgIHIAACIAACPxEwNDRMTk4GC5IAZBI9AQRAAARA4F8ExGLxp59+mp+f/69TzD6CTDI7/4geBEAABH5OoKmp6euvv3769OnPTzP3L8gkc3OPyEEABEDgdQJ3795dsWJFTU3N65eYeQYyycy8I2oQAAEQGJtAXFycra1ta2vr2JeZdxYyybycI2IQAAEQeDMBV1dXJycnLpf75iLMusIsmXz06NFHH33ErAwjWhAAARBQhMD27dtDQ0P5fL4ilXS5LLNk8vHjxzNnzmxvb2fho4sEOBwOo/5vi0QiLperi5lETJoksHDhQuwNMlr2mSWTra2t3333nb6+/gx8dJHAJ5984uzs3NPTM7qL6/Dx+fPn58yZo4uZREyaJPDtt982NDTo8H8cRUNjlkxKpdK+vr4OfHSUwL1799atWxcYGKjofwMtLW9lZbV7924dTSbC0hiB3t5eqVSqpf8p1OE2s2RSHQTRJq0IxMfHL1mypKioiFZeqcMZPp+/bds2Pz8/dTSONkEABGQEIJMyFDjQBQK9vb1WVlbbt28Xi8W6EM+bY3gxeGVlZRUWFvbmIrgCAiCgAgKQSRVARBO0IpCfn79ixYrz58/TyiuVO1NTU2NtbR0fH6/yltEgCIDAaAKQydE0cKwLBKRSaWBgoLGxcWNjoy7E84YYioqKrK2t09LS3nAdp0EABFRDADKpGo5ohVYEWlpaNm7c6OjoKJFIaOWYCp25ffu2jY3NvXv3VNgmmgIBEHidAGTydSY4owsEMjMzTU1NMzIydCGYsWJITk62tbUtKSkZ6yLOgQAIqIwAZFJlKNEQrQiIxeL9+/cbGxv39/fTyjFVORMdHW1ra1tfX6+qBtEOCIDAmAQgk2NiwUldIFBaWrp69eqgoCBdCOa1GAICAuzs7DgczmtXcAIEQECVBCCTqqSJtuhGIDExcenSpY8ePaKbY5P3x9nZeefOnQKBYPJNoQUQAIFxCEAmx4GDS1pPoK+vz8rKasuWLSMjI1ofzM8D+PHHH3ft2vXzc/gLBEBA9QQgk6pnihZpRaCgoGDlypVxcXG08mryzmzfvn3Pnj2TbwctgAAIjE8AMjk+H1zVegJSqTQ4OPj777/XsdWct2/fbm9vr/XpQQAgQHsCkEnapwgOTppAa2vrxo0bHRwcdGYaJZ/P37Fjh7e396TZoAEQAIEJCEAmJwCEy7pBIDMz08zMLD09XTfCwYKuupFHRKEVBCCTWpEmODlZAmKx+Mcff1y8eHFfX99k26JBfSzoSoMkwAWmEIBMMiXTiLOsrGz16tUBAQE6sJceFnRFfwYByghAJilDDUOaJ0BOo3zw4IHmXZmcB1jQdXL8UBsEFCAAmVQAFopqO4H+/v4dO3Zs2rRJ26dRYkFXbe+K8F+LCEAmtShZcFUFBMhplLGxsSpoS3NNYEFXzbGHZcYRgEwyLuUMD1gqlYaEhCxevLiurk57UZALunZ1dWlvCPAcBLSFAGRSWzIFP1VGoK2tbePGjSdOnNDeaZRY0FVlvQENgcBEBCCTExHCdV0kkJmZaW5unpaWpqXBYUFXLU0c3NZGApBJbcwafJ4sAbFYfPDgwSVLlvT09Ey2LU3Ux4KumqAOmwwlAJlkaOIRdnl5+erVq0+dOqWN0yixoCs6MAhQRgAySRlqGKIdgcTExGXLlt2/f592no3rEBZ0HRcPLoKAiglAJlUMFM1pEYGBgYEdO3Zs2LBBu6ZRYkFXLepjcFUHCEAmdSCJCEF5Atq4GyUWdFU+36gJAooTgEwqzgw1dIiAVCo9c+bM0qVLa2trtSUsLOiqLZmCn7pBADKpG3lEFMoTaG9vX79+vb29vbZMo8SCrsonGzVBQHECkEnFmaGGzhEgp1GmpqZqRWRY0FUr0gQndYYAZFJnUolAlCcgFosPHz68dOlSLperfCtU1cSCrlSRhh0Q+IkAZBL9AAR+IkBOo/T396f/NEos6IouCwJUEoBMUkkbtmhNIDEx0cTEpLCwkNZeEgQWdKV5guCejhGATOpYQhGO8gSGhoa2b9++fv16mk+jxIKuyucYNUFAcQKQScWZoYbuEigsLFy5ciXNd6PEgq662wERGR0JQCbpmBX4pCkCUqk0LCxs6dKlNTU1mvJhQrtY0HVCRCgAAiokAJlUIUw0pQsEOjo66DyNEgu66kInQwxaRQAyqVXpgrOUEMjMzLSwsLh+/Tol1hQzwmazrayswsLCFKuG0iAAAsoSgEwqSw71dJeAWCw+evTosmXLurq66BZlbW2ttbV1fHw83RyDPyCgqwQgk7qaWcQ1KQLPnz9fvXo1DadRPn782NraOi0tbVLhoTIIgIDcBCCTcqNCQYYRuHjxoomJSX5+Pq3izsnJsbGxuXfvHq28gjMgoMMEIJM6nFyENikCw8PD27ZtW7t2La2mUV69etXW1rakpGRSsaEyCICA3AQgk3KjQkHmESgsLFyxYgWtplHGxMTY2trW19czLxuIGAQ0QwAyqRnusKoVBMhplCYmJlVVVTRxODAw0M7OjobvFtGED9wAAZUTgEyqHCka1CkCnZ2d69atO3bsGE12o3R1dd25c6dAINApyggGBGhMADJJ4+TANXoQIKdRXrt2jQ7uHDx4cNeuXXTwBD6AAEMIQCYZkmiEqTwBiURy7NgxExMTDoejfCsqqmllZbVnzx4VNYZmQAAEJiYAmZyYEUqAQEVFhaWlpZ+fn8Z3o9yxY4e9vT0yAgIgQBkByCRlqGFIuwlcvHjR1NQ0Ly9Pg2Hw+XwrKytvb28N+gDTIMA0ApBJpmUc8SpJQCAQbNu27YcfftDgNEo2m21tbY0FXZVMIaqBgFIEIJNKYUMlRhK4f//+ihUrYmJiNBU9FnTVFHnYZTIByCSTs4/YFSNATqM0NTWtrKxUrKaKSmNBVxWBRDMgoAAByKQCsFAUBFgs1rp1644ePaqRaZRY0BU9EASoJwCZpJ45LGo3AXIaZUpKCvVhXL161cbGBgu6Uk8eFplMADLJ5OwjdmUISCQSe3t7MzMzNputTP1J1MGCrpOAh6ogoCQByKSS4FCNyQQqKytXr15N/TTKwMBAW1tbLOjK5L6H2KknAJmknjks6gKBixcvmpmZUbzvo6urq52dnVAo1AWCiAEEtIQAZFJLEgU3aUZAIBBs3bp19erVIpGIMtcOHjxoZ2dHmTkYAgEQIAgCMoluAAJKEiCnUUZHRytZX/FqVlZWO3fuVLweaoAACChPADKpPDvUZDgBqVR65swZU1PT58+fU4Nix44dx44do8YWrIAACJAEIJPoCSCgPAE2m7127dpDhw6JxWLlW5GvJrmgq6enp3zFUQoEQEA1BCCTquGIVhhL4MaNG8uXL6dgGiW5oGtoaChjUSNwENAIAcikRrDDqO4QeLEcj4ODg5mZGYvFUmtU5IKuFy5cUKsVNA4CIPAKAcjkK0DwJwgoTKC6utrS0tLX11etu1GSC7qmpqYq7B8qgAAITIIAZHIS8FAVBP5JICkpyczM7O7du/88ofp/yQVd1WpC9U6jRRDQfgKQSe3PISKgAQGRSLRly5ZVq1apb+4/uaBrcXExDcKFCyDAIAKQSQYlG6GqlcD9+/eXL1+uvmmU5IKudXV1ao0CjYMACLxCADL5ChD8CQJKEiCnUZqZmZWXlyvZxLjVgoKC7OzsOBzOuKVwEQRAQMUEIJMqBormmEyAw+GsXbv2wIED6phGSS7oKhAImEwYsYMA9QQgk9Qzh0VdJnDz5s3ly5dfvXpV5UFiQVeVI0WDICAPAcikPJRQBgTkJSCRSJycnMzNzTs6OuStI185LOgqHyeUAgEVE4BMqhgomgOBmpqaVatWqXwaJRZ0RdcCAY0QgExqBDuM6jiBpKQkc3Pz3NxcVcWJBV1VRRLtgICiBCCTihJDeRCYmMDIyMiWLVtWrlypqjdusKDrxNBRAgTUQwAyqR6uaJXxBB48eLB8+fKoqCiVkMCCrirBiEZAQAkCkEkloKEKCExMQCqVhoWFmZubl5WVTVx6ohJY0HUiQrgOAuoiAJlUF1m0CwLd3d1r1qzZv3//5KdRYkFXdCcQ0BQByKSmyMMuIwiQ0yiTk5MnGS0WdJ0kQFQHAaUJQCaVRoeKIDAxAYlE4uLiYmFh0d7ePnHpN5fAgq5vZoMrIKBeApBJ9fJF6yBQW1u7atUqHx8fcjdKiUQiFovl2ZlSIpEUFBTk5+dLpdKQkJDdu3fzeDyRSMTn8+WpDvIgAAIqIQCZVAlGNAIC4xG4dOmSubn5nTt3CIJ49uxZYGDgs2fPxqvw8hqbzba0tPzd736XkJBw5MiRXbt21dfX29vbHz58mM1mT1gdBUAABFRCADKpEoxoBATGIyAWi7dv325paSkQCEJDQ3/5y1/6+vqOV+HlNYlEEhgYOGXKlH//93//j//4j5kzZ3722WdTpkwxNTVtbGycsDoKgAAIqIQAZFIlGNEICExA4MmTJxs3bty3b9/SpUv19PTc3NwmqPDyckVFhaGhoZ6e3ltvvTVlyhQ9Pb33338/JSVl8q/OymMdZUAABAiCgEyiG4CAegn09/fX1NSUlZXt2bPnV7/61f/7f/9PT0/vxIkT8liVSqX29vZvvfWW3svPW2+9paZduuRxBmVAgJkEIJPMzDuipo5ARETEb19+3n77bVLt9PT0Dh48KKcHN27cmDFjBllxwYIFT58+lbMiioEACKiEAGRSJRjRCAi8kUBLS4udnd0777wjuynU09Ozs7OT88Fpb2/vpk2b9PT0fvGLX5w9exbvuL4RNC6AgHoIQCbVwxWtgsDPCRQXFy9duvQ3v/nNv/3bv+np6W3atGlgYODnRd74V3h4+C9+8Yt169b19/e/sRAugAAIqIcAZFI9XNGqNhCQSqUDAwPd3d0sNX+6u7s5HE51dbWLi8vvf/97PT29BQsWPHr0SE6zKSkpX375pY+PD5vNlrMKNcW6u7sHBgZwg6sNnR0+Kk8AMqk8O9TUagKdnZ2XLl2ytraeP3/+7NmzZ6j5M3PmzDlz5kyfPv23v/3tf/3Xf7377rvTp0+X0+b06dPfe++9adOmyVmemmKzZ8+eP3++tbX15cuXWSyWVncGOA8C4xCATI4DB5d0k8DIyMi9e/cMDAy+/fbbkJCQBw8etLS0dFDyYbPZ3d3dXC63q6urs7NTTpssFqurq4vNZstZnppiLS0tDx48OH369DfffGNoaJiXlzcyMqKbPQZRMZsAZJLZ+Wde9CMjI6GhoQsXLgwPD+/u7hYKhcxjoMqIhUJhd3d3WFjYwoULz5w5I+d7Sar0AG2BgJoJQCbVDBjN04mARCJJTEw0MDBITU3FrY8KMzMyMnL9+nUDA4OLFy9KJBIVtoymQEDjBCCTGk8BHKCOQH5+/ooVK6KiovDWicqhS6XSqKiolStXFhYWqrxxNAgCGiQAmdQgfJimlIBEIvnxxx9/+OEH3EeqifvIyMjq1asPHTqEG0o1EUazGiEAmdQIdhjVAIHHjx9v2rTp4sWLGrDNGJOJiYmbN28uLi5mTMQIVPcJQCZ1P8eIkCQQGxu7Zs2aSW6PDJjjE2hra1u9enV8fPz4xXAVBLSIAGRSi5IFVydFwMvLa+XKlZNqApXlIGBhYeHn5ydHQRQBAe0gAJnUjjzBy8kTcHZ2XrFixeTbQQvjEzAzM5Nzm7Dx28FVEKAJAcgkTRIBN9ROADKpdsQvDUAmqeEMK5QRgExShhqGNEwAMklNAiCT1HCGFcoIQCYpQw1DGiYAmaQmAZBJajjDCmUEIJOUoYYhDROATFKTAMgkNZxhhTICkEnKUMOQhglAJqlJAGSSGs6wQhkByCRlqGFIwwQgk9QkADJJDWdYoYwAZJIy1DCkYQKQSWoSAJmkhjOsUEYAMkkZahjSMAHIJDUJgExSwxlWKCMAmaQMNQxpmABkSrFdHAAAB91JREFUkpoEQCap4QwrlBGATFKGGoY0TAAySU0CIJPUcIYVyghAJilDDUMaJgCZpCYBkElqOMMKZQQgk5ShhiENE4BMUpMAyCQ1nGGFMgKQScpQw5CGCUAmqUkAZJIazrBCGQHIJGWoYUjDBCCT1CQAMkkNZ1ihjABkkjLUMKRhAhqXSaFQKBAISApCobCnp4fP5w+9/GgYjUrNQyZVihONaZ4AZFLzOYAH1BDQuEzGx8fHxMQQBCEWi8+dO7dy5crU1NTz58/Hx8dTQ4AaK5BJajjDCmUEIJOUoYYhDRPQuExGRESEhoYSBJGfn+/g4FBYWDg8PMzlcnk83sjIiEAgkEgkBEEIhUI+n08ei8ViLpfLYrEGBwdJfAKBQCQSyY6FQqFEIhEIBCMjIxrm+0/zkMl/ksC/OkIAMqkjiUQYExLQuExGRUVFR0cTBBEVFRUeHk4QxMjIyOnTpxMTE/Py8iIiIjgcDkEQV65c8fX17e7ulkgkGRkZ3377rb6+vrW1NY/HEwgEUVFR6enpZLAxMTFJSUlsNvvs2bN5eXkTEqCmAGSSGs6wQhkByCRlqGFIwwToIJPBwcFFRUWRkZGlpaUEQfD5fHd397Nnz2ZnZ58+fZrL5RIEcfHiRRcXl/7+/oKCgv379+fk5HR2dlpbW7u6uvJ4vDNnzly5coVEGRoaGhsb29HRERQUdPfuXQ3z/ad5yOQ/SeBfHSEAmdSRRCKMCQloXCZjYmI++OADExOTkpIS8hkpn8/38vKKjIzMzc319fUtKytjsVhnzpxxcXHp6ek5ffq0lZVVdXU1j8fz9/c/fvx4fX19RETE1atXyWDDw8PPnz/PYrH8/f2vXLnCYrF4PJ5YLJ4QhVoLQCbViheNU08AMkk9c1jUDAGNy2R0dHRQUFBiYqK1tXVubi55N0nK5JMnTwwMDD744IMZM2b87//+77Zt2wYHByMjI2fOnDnj5efDDz/cunVrVVVVZGTkKzLZ29u7adOmqVOnzpgxY+HChdnZ2ZpVSsikZvo3rKqNAGRSbWjRMM0IaFwmo6KiYmNjRSLRkSNHduzY0d3dLZVKZXeTPj4+paWlHR0doaGhLi4uPB4vIiLi2LFjjY2NXC63ubm5vb29p6cnLCwsNTWVRBsZGZmQkMBms0+dOpWSksLlcq9cueLi4lJTU6NB9pBJDcKHaXUQgEyqgyrapCMBjcvkuXPnzpw5QxBEdXX1li1b/P39BwYGPD09IyIiyLFJHo83emyysLDwwIEDOTk5PT09x48fd3Z27uzsDA0NjYyMZL38eHl5nT17tq2tzc/PLyUlpaenJzk52dnZubq6WoMJgExqED5Mq4MAZFIdVNEmHQloXCYvXLhAvulKEERKSsqGDRtSUlLCwsIuXLhw7969iIgINps9+k1XsVicnp7+zTffzJgxY9WqVdXV1RKJxMfHZ9asWeST2KlTpy5evDgvL2/Pnj3Tpk0jH7pmZWXhoSsd+x980loCkEmtTR0cV5CAxmVS8PJDei0Wi/v6+oaHh/l8PjkVcvS8yeHhYdm8ye7u7o6Ojr6+PrLi8PAwm83uePl59uyZu7t7VlbWwMAAi8Xq6Ojo7u7WrEYSBIG7SQU7JorTnQBkku4Zgn+qIqBxmVRVILJ2eDze2bNn7927JztDhwPIJB2yAB9USAAyqUKYaIrWBHRPJiUSCZ/Ply3KQxP6kEmaJAJuqIoAZFJVJNEO3QnonkzSkzhkkp55gVdKE4BMKo0OFbWMAGSSmoRBJqnhDCuUEYBMUoYahjRMADJJTQIgk9RwhhXKCEAmKUMNQxomAJmkJgGQSWo4wwplBCCTlKGGIQ0TgExSkwDIJDWcYYUyApBJylDDkIYJQCapSQBkkhrOsEIZAcgkZahhSMMEIJPUJAAySQ1nWKGMAGSSMtQwpGECkElqEgCZpIYzrFBGADJJGWoY0jAByCQ1CYBMUsMZVigjAJmkDDUMaZgAZJKaBEAmqeEMK5QRgExShhqGNEwAMklNAiCT1HCGFcoIQCYpQw1DGiYAmaQmAZBJajjDCmUEIJOUoYYhDROATFKTAMgkNZxhhTICkEnKUMOQhglAJqlJAGSSGs6wQhkByCRlqGFIwwQgk9QkADJJDWdYoYwAZJIy1DCkYQJeXl4rV67UsBMMMG9hYeHn58eAQBEiUwhAJpmSacQZGxu7Zs2a9vZ2oFAfgba2ttWrV8fHx6vPBFoGAYoJQCYpBg5zGiNQVFS0adOmpKQkjXnAAMMXL17cvHnzkydPGBArQmQKAcgkUzKNOMVi8f79+9esWSMWi0FDHQRGRkZ++OGHgwcPgrA68KJNTRGATGqKPOxqgEBeXt7y5cujo6OlUqkGzOu0SalUGh0dvWLFioKCAp0OFMExjgBkknEpZ3LAEokkISHBwMAgLS0Ndzwq7AkjIyOpqakGBgYXL16USCQqbBlNgYDGCUAmNZ4COEApgZGRkZCQkIULF549e5bH44lEIkrN65wxkUjE5XLDw8MXLlwYGho6MjKicyEiIKYTgEwyvQcwMH6RSHT37l0DAwNSLEtKSjgcDg8fBQmw2eySkpLw8PDvvvvO0NDw3r17+M3BwP9NTAgZMsmELCPGMQhwOJzExMS1a9d+/PHHb7/99n/goyCBt99+++OPP34B8OLFi93d3WMgxikQ0AkC/x8TnDpDXtuPGAAAAABJRU5ErkJggg==;" vertex="1" parent="1">
          <mxGeometry x="25" y="70" width="769.52" height="960" as="geometry" />
        </mxCell>
      </root>
    </mxGraphModel>
  </diagram>
</mxfile>
